<svg xmlns="http://www.w3.org/2000/svg" width="608" height="976" fill="none"><style>*, ::after, ::before { box-sizing: inherit; }
* { -webkit-font-smoothing: antialiased; }</style><path fill="#DFE3FF" d="M619.461 711.263c-.231.581-2.008 3.928-2.008 3.961-1.187 2.152-3.153 2.023-4.026 1.679-1.587-.668-4.446 4.294-5.287 13.56-.074.7-.074.7-4.962 9.267-.441.786-.841 1.668-1.303 2.82-.357.904-.925 2.292-1.23 2.873-.168.302-.389.732-.578 1.044-2.502 4.542-5.687 8.621-8.304 13.077-1.472 2.508-1.504 5.683-3.385 8.05-6.991 8.858-6.991 8.858-7.527 9.149-.147.064-14.127 6.866-15.778 3.368-.904-1.926-4.446-1.722-3.994-4.606.473-3.121 2.354-5.812 2.502-9.03.136-2.906-2.555-5.209-1.766-8.255.252-.958.252-1.001 1.555-1.959.105-.107 11.553-8.943 10.228-13.883-1.881-6.996-1.209-10.752-.641-12.377.778-2.217 4.415-2.497 3.69-5.618-.263-1.055-.999-4.273 3.794-4.585 2.534-.205 5.666-1.324 6.434-2.336 5.266-.129 5.266-.129 5.224-.742.957-.904 2.407-.614 3.427-1.453-.042-1.582-.053-3.078 3.616-3.53 3.49-.452 1.451-2.788.757-3.52 0-.742.178-4.423 4.236-5.08 1.177-.172 4.688-.721 4.93-7.587 0 0 .011-.108.011-.151.662-.495.662-.495 1.902-.57.999.043 4.089.215 5.624 3.25.21.355.431.872.515 1.291zM588.231 700.198c-.41 1.894-2.597 1.001-3.322-.247-.095-.183-.946-1.712 1.451-1.733 2.27.097 1.892 1.905 1.871 1.98M581.85 696.064c-.294-.139-2.859-1.356-2.375-1.592a.6.6 0 0 1 .168-.043l1.598-.151c.651.054.777.452.609 1.786M576.061 697.229c-.441 1.582-2.039 1.98-2.912.258-.62-1.152-.105-1.851 1.325-1.851.978.075 1.472.344 1.472.344s.325.517.115 1.249M577.033 690.297c-.168.452-1.051 2.766-1.839 2.798-.473.022-1.367-1.184-2.008-2.701-.757-1.668-.431-1.668.126-1.668 1.198.075 3.133.818 3.711 1.549v.022zM523.899 765.959c-.4 1.851-2.47 2.529-3.301 1.054-.736-1.323.126-3.379 1.829-3.454 1.367.14 1.682 1.496 1.472 2.4M493.627 886.605c-.347 1.098-1.745 1.474-2.218.592-.399-.764.252-2.024 1.377-2.056.883.075 1.041.915.841 1.464M487.652 887.865c-.441 1.389-2.638 1.679-3.174.442-.379-.797.304-2.034 1.818-2.056 1.261.086 1.556.99 1.356 1.614M550.411 884.583c-.463.689-1.283.968-1.346.484-.095-.484.631-1.388 1.293-1.421.462.033.305.571.053.937M553.342 886.649c-.378.409-2.018.431-2.018.022 0-.172.442-.409 1.272-.409.746.032.894.247.746.387M556.475 886.983c-.473.613-1.398.785-1.43.28-.01-.377.599-.958 1.23-.98.504.032.41.431.2.7M555.445 901.06c-.357.366-.904.549-.904.269 0-.258.557-.743.967-.775.263.022.137.312-.063.506M588.003 908.476c-.736.452-1.682.678-1.619.355.073-.28 1.135-.872 1.85-.926.368 0 .231.194.105.312a.8.8 0 0 1-.336.259M598.818 895.786c-.683.592-1.451 1.194-2.092 1.291h-.137c-.494 0-.956-.269-1.482-.28-.462 0-.914.27-1.377.27a.8.8 0 0 1-.284-.033c-.809-.097-.757-.376-.736-.42.085-.15.347-.355 1.504-.645.41-.108.672-.172.914-.323.147-.097.358-.269.494-.409.904-1.044 1.745-1.593 1.745-1.593.116-.086.294-.183.4-.237.021.033.063.033.063.054.042.097.147.301.83.495-.883.743-.767 1.378-.462 1.421.452.064.83-.409 1.293-.258-.032.096-.053.182-.673.667M305.046 574.76c-.105 1.754-1.283 2.561-2.145 1.517-1.051-1.259-.767-4.165.736-4.186 1.041.183 1.44 1.657 1.409 2.669M294.882 583.166c-.105 1.539-1.513 2.184-2.48 1.108-1.051-1.173-.673-3.433.914-3.412 1.146.205 1.619 1.453 1.566 2.304M287.364 601.687c-.115 1.743-2.092 2.357-3.343.99-1.219-1.302-.672-3.552 1.251-3.466 1.514.205 2.145 1.561 2.092 2.476M287.059 594.154c-.189 1.711-3.689 1.905-4.982.258-.81-1.044-.126-2.572 2.27-2.465 2.04.248 2.807 1.453 2.712 2.207M176.677 649.087c.168.958-.042 1.603-.442 1.377-.746-.452-1.261-3.239-.62-3.336h.084c.463.14.851 1.227.978 1.959M237.411 708.054c.126.786-.757 1.055-1.566.485-.789-.571-.831-1.518-.095-1.679.116-.011.231 0 .305 0 .841.107 1.314.764 1.356 1.194M283.369 834.666c.274.463.253.775-.042.689-.609-.162-1.524-1.399-1.167-1.625.032-.022.095-.022.127-.022.389.075.872.635 1.082.958M284.87 838.227c.2.496-1.219.549-2.397.065-.736-.301-1.03-.689-.567-.85.273-.129.767-.076.956-.054 1.219.151 1.903.592 2.008.839M289.947 840.08c.441.732.347 1.205-.168 1.055-1.094-.237-2.586-2.239-1.924-2.573.073-.053.137-.021.21-.021.725.14 1.524.969 1.882 1.539M307.999 854.265c.305.484.21.775-.2.7-.746-.173-1.766-1.389-1.387-1.647.084-.054.147-.054.21-.054.546.086 1.135.635 1.377 1.001M97.214 567.625c0 .549-.683.645-1.156.172-.42-.484-.284-1.055.252-1.055 0 0 .095.022.137.022.525.14.767.602.767.861M100.77 564.492c0 .699-.442 1.022-.873.581-.578-.581-.536-1.841.063-1.798h.084c.452.151.705.786.726 1.217M91.032 599.846c.137.925-.031 1.507-.367 1.248-.705-.527-1.125-3.121-.516-3.175h.043c.42.173.725 1.227.84 1.927M95.208 601.517c.063.592-.725.71-1.325.183-.599-.528-.578-1.27.063-1.313.085 0 .18.021.253.021.683.205.988.754 1.009 1.109M162.868 501.865c-.147.958-1.535 1.076-2.113.194-.462-.689-.021-1.561 1.02-1.453.914.15 1.156.85 1.093 1.259M157.814 495.947c-.231.742-2.922.43-3.258-.388-.126-.377.462-.753 1.661-.603 1.24.226 1.661.7 1.597.991M153.57 487.12c-.085.915-.473 1.442-.768 1.023-.399-.571-.21-2.573.4-2.573.368.097.441.98.368 1.55M206.241 356.71c-.768 2.303-2.46 3.379-3.038 1.969-.704-1.7.778-5.586 2.481-5.564 1.124.258.998 2.26.557 3.595M197.121 353.803c-.463 1.259-1.787 1.69-2.176.667-.379-.958.473-2.594 1.556-2.518.862.172.883 1.184.62 1.851M198.971 357.226c-.515 1.345-2.218 1.679-2.691.527-.399-1.001.515-2.497 1.808-2.4 1.03.194 1.136 1.238.883 1.873M189.519 355.288c-.599 1.733-1.924 2.519-2.397 1.443-.546-1.303.62-4.187 1.955-4.144.883.215.789 1.7.442 2.701M192.683 349.875c-.547 1.421-2.124 1.841-2.586.721-.463-1.076.515-2.841 1.829-2.766 1.009.205 1.062 1.303.757 2.045M211.562 351.286c-.283.699-.998.936-1.261.376-.231-.549.252-1.442.883-1.399.462.086.483.657.378 1.023M207.716 321.538c-.567 1.432-1.797 2.088-2.165 1.195-.463-1.077.673-3.52 1.871-3.477.788.205.652 1.443.294 2.282M212.896 320.538c-.662 1.399-2.806 1.614-3.227.312-.336-1.012.746-2.346 2.208-2.249 1.229.226 1.335 1.27 1.019 1.937M193.117 269.362c-.631 1.033-1.851 1.324-1.998.474-.199-.786.81-2.088 1.766-2.013.715.161.568.979.232 1.539M197.783 270.08c-.6.98-1.63 1.335-1.882.603-.231-.786.767-2.206 1.703-2.12.673.161.494.979.179 1.517M198.591 276.595c-.378.667-.998.904-1.093.431-.115-.496.515-1.464 1.051-1.443.368.108.242.678.042 1.012M196.2 283.771c-.652.883-3.322.625-3.458-.355-.063-.473.725-1.022 2.176-.861 1.314.248 1.534.861 1.282 1.216M196.721 262.592c-.61.958-1.861 1.162-1.977.344-.115-.732.789-1.776 1.714-1.679.662.172.578.883.263 1.335M402.674 912.254c.284.42-.126.635-.914.484-1.072-.161-2.039-.904-1.556-1.216.147-.108.494-.097.631-.097.925.097 1.64.56 1.839.829M321.506 288.692c-.578 1.647-1.871 2.464-2.302 1.453-.567-1.195.547-4.015 1.882-4.015.872.14.767 1.582.42 2.562M333.563 288.023c-1.125 3.164-4.057 4.531-5.077 2.357-1.125-2.357.988-7.05 3.753-7.028 1.934.301 1.934 2.916 1.324 4.671M340.786 283.061c-.526 1.098-3.942 1.001-4.321-.151-.21-.646.789-1.291 2.481-1.184 1.65.162 2.071.883 1.84 1.335M373.076 270.318c-1.976 7.771-5.666 2.336-5.687 2.271-.819-1.507-.578-3.422.064-4.531.809-1.313 1.744-1.765 4.173-2.626 1.829 3.401 1.576 4.477 1.45 4.886M368.838 289.595c-.357.506-.83.667-2.585 1.27-1.02.355-1.23.549-1.535.936-.126.173-.368.388-.578.452-.705.302-1.472.485-3.038.517-2.923.022-6.045-1.205-5.992-3.078.042-1.259 1.913-2.411 2.744-2.852 1.187-.614 1.639-.861 2.091-2.874.274-1.151.431-2.647.547-3.874.21-2.228.305-2.519.4-2.702.042-.118.115-.236.189-.333.452-.721 1.85-.646 2.386-.625 1.598.151 3.132.571 4.709.84-.168 2.271-.42 7.9.673 10.806.179.473.357.968-.011 1.517M391.627 312.046c-1.325 3.649-7.747-.667-8.82-3.078-1.461-3.196-1.461-3.196-4.11-3.196-2.806 0-3.321-5.177-3.321-5.252-.032-.829 1.093-1.787 3.006-1.809.631.043.967.194 1.303.571.883.904 1.43 1.507 5.75 2.045 3.228.387 4.52-.42 5.425-1.023.809-.495 1.829-.882 2.196-.495.284.28.232.646.19 1.044-.116 1.098-1.104 2.723-1.798 3.885-.389.625-1.083 1.766-1.104 2.357-.01.345.326.775.558.991 1.387 1.216 1.156 2.809.725 3.96M454.669 329.673c-.778.764-12.572 1.378-13.193 1.238-1.639-.334-3.868-2.282-3.605-4.585.042-.452.378-2.712 2.228-3.099.967.107 1.514 1.442 1.377 3.487 5.519-1.529 5.519-1.529 6.949-1.238 1.303.258 6.706 2.981 6.37 3.993 0 .064-.095.161-.126.204M424.837 304.576c-.231 1.097-1.419 1.506-1.986.688-.536-.785 0-2.195 1.082-2.195.841.086 1.052.936.904 1.507M422.311 309.947c.011 0 .078.023.078.023s-.067-.023-.078-.023M422.68 309.969c.042 0 .064 0 .117.021-.053-.021-.064-.021-.117-.021M423.027 309.989c.085 0 .149 0 .213.022-.064-.022-.128-.022-.213-.022M423.633 310.01c.085.022.117.022.202.022-.085 0-.117 0-.202-.022M424.145 310.066c-.032-.022-.043-.022-.086-.022.032-.011.054-.011.086.022M466.264 322.678c-.22 1.615-1.492 2.325-2.218 1.249-.788-1.152-.283-3.466 1.062-3.52.978.129 1.272 1.41 1.156 2.271M461.491 327.499c-.189.689-2.218.71-2.554.021-.21-.409.305-.828 1.304-.807.977.065 1.314.495 1.25.786M457.55 311.013c-.116.667-.768.936-1.104.43-.326-.452-.032-1.313.546-1.334.516.075.6.603.558.904M452.743 316.145c-.126.786-1.156 1.055-1.619.409-.399-.57-.031-1.431.81-1.431.694.064.893.635.809 1.022M455.54 320.483c-.126.431-1.271.485-1.555.054-.126-.237.094-.592.809-.592.599.043.799.323.746.538M448.54 303.639c-.452.947-5.508.721-5.771-.28-.063-.376.778-.828 2.964-.753 2.082.14 2.996.624 2.807 1.033M452.915 294.286c-.252 1.001-2.712 1.076-3.322.118-.389-.592.305-1.291 1.735-1.259 1.293.129 1.713.743 1.587 1.141M455.318 303.951c-.189.807-1.892.915-2.313.118-.262-.473.211-1.065 1.188-1.065.915.086 1.199.613 1.125.947M453.861 307.236c.011.021.043.021.043.021s-.032 0-.043-.021M454.289 307.257c.064 0 .106.022.149.022-.043 0-.096-.022-.149-.022M454.836 307.279c.031 0 .042.021.095.021-.053.011-.064-.021-.095-.021M505.843 330.084c-.231.495-.652.753-1.051.968-.221.097-.641.194-.946.162-.379-.022-.684-.323-1.03-.345-.4-.01-2.481-.064-4.226 2.605-.358.527-.81 1.184-1.871 1.464-1.251.312-2.765-.463-3.206-1.658-.579-1.507.977-5.133 5.224-6.586.736.785 1.871 1.431 3.175.118.546-.549.851-.71 1.313-.743 1.083.237 3.154 2.842 2.618 4.015M504.873 388.588c-.084.957-.935 1.399-1.493.742-.578-.667-.304-2.056.631-2.077.694.065.915.829.862 1.335M544.144 482.676c-.168 1.334-1.839 1.829-2.691.742-.693-.915-.168-2.421 1.22-2.464 1.156.086 1.545 1.065 1.471 1.722M527.957 453.865c-.095 1.216-.999 1.851-1.629 1.13-.747-.829-.495-2.874.63-2.949.789.108 1.041 1.13.999 1.819M567.872 458.847c-.063 1.517-.672 2.421-1.219 1.829-.788-.872-.725-4.186.357-4.316.673.097.904 1.518.862 2.487M343.621 215.936c-.452.904-1.199 1.334-1.399.785-.22-.645.589-2.184 1.335-2.184.484.075.316.861.064 1.399M354.587 182.108c-.568 1.012-.936 1.131-2.008 1.088-.694-.022-1.083-.054-1.388.43-1.051 1.593-1.566 3.584-2.996 4.962l-6.117 5.532c-.127.043-.284.118-.41.139-.799.237-1.661-.096-2.481.237-.894.377-1.672 1.12-2.691 1.195-.389.021-.683-.291-.841-.431-.568-.592-.988-1.001-2.491 0-1.325.883-5.351 3.627-5.834.043-.41-2.809 6.727-6.177 6.801-6.199.042-.021 3.647-1.582 3.742-3.099-1.766-.905-1.766-.905-1.514-2.002.095-.495 1.682-3.487 2.691-3.929 1.871-.839 3.9.065 5.824-.549.073-.021.073-.021 2.827-2.313.042-.033 5.645-3.272 6.717-3.391 1.23.312-.199 2.712 1.094 2.562.767-.097 1.387-.786 2.228-.592.126.635-3.09 6.264-3.153 6.317M372.162 195.713c-1.556 2.615-4.72 3.53-6.181 6.22-.547 1.012-.063 2.293-.789 3.272a4 4 0 0 0-.21.291c-.126.172-.399.312-.599.355-1.661.474-2.344-1.292-3.637-1.657-2.05-.571-3.648 1.183-5.603 1.205-.578 0-.652 0-1.85-.334-1.65-.452-3.175.528-4.783.571-.893.021-5.466.236-8.315 1.528-1.944.883-3.647-.291-3.773-1.055-.127-.807.504-1.119 2.827-2.368 4.089-2.163 4.089-2.163 4.289-2.206 2.859-.624 5.845.312 8.704-.646-.347-.861-3.921-2.97-5.54-3.282-1.083-.215-1.083-.893-1.083-1.109.074-.624.074-.624 3.185-1.668 3.07-1.001 3.017-4.337 4.605-6.468.42-.56.883-.775 1.398-.635 3.9.968 3.899.968 10.186-4.208-1.735-.958-1.735-.958-1.787-1.184-.211-1.023.819-1.378 1.04-2.185-.736-.883-2.912-.549-2.586-2.12.536-2.788 4.142-2.928 4.657-5.726-1.766-1.087-2.712 1.022-4.152 1.313-.011-.075-.074-.172-.095-.237.62-1.41 2.197-1.646 3.122-2.733 1.766-2.045 2.639-4.671 4.405-6.738.546-.667 1.019-1.141 2.396-2.217 4.962-3.907 6.654-4.649 10.691-4.606.094.043.21.14.305.193.273 3.068-6.234 2.131-4.499 4.65 1.198 1.722 1.923 1.141 2.512.667.515-.409 2.113-1.625 1.955-.527-.073.613-.136 1.151-.809 1.905l-6.581 6.619c-1.44.958-3.206-.172-4.646.689-.399 1.991 2.428 1.42 3.28 2.604-1.798 3.799-1.798 3.799-2.124 5.08-.483 1.754 2.46 2.034 1.672 3.853-1.461 3.358-4.005 6.145-4.867 9.805-.042.215-.095.527-.147.742-.042.13.094.259.115.388 1.125.312 2.323-.441 3.417.215.431.291.41.84-.105 1.744M373.095 158.357c-.61.743-2.365 1.109-2.365 1.109-.526.064-.915-.269-.915-.829-.031-.861.946-2.174 2.491-2.12 1.367.215 1.125 1.41.789 1.84M395.896 150.747c-.599 1.001-1.619 1.862-1.798 1.313-.126-.409.431-2.895.778-3.519.473-.829 1.409-1.485 2.113-1.485.095.021.389.075.294.398 0 .032-.767 2.249-1.387 3.293M420.137 177.169c-.4.387-1.672 1.42-5.687 3.767-1.903 1.097-2.754 1.592-2.923 2.852l-.231 2.895c-.063 1.55-.063 1.679-.221 1.873-1.166-.829-1.166-.829-2.165-.453-.631.216-.725.259-1.167.98-1.923 2.873-2.491.646-2.491.646.116-.937 1.125-1.141 1.388-1.948.094-.237 0-.592-.011-.861-.084-.495.105-2.131.662-3.498.452-1.066 1.209-1.916 1.64-3.003.557-1.378.578-2.96 1.261-4.327.053-.075.442-.764 2.45-1.13 1.156-.215 2.375.366 3.49-.333.126-.097.126-.097 2.47-3.347 1.65-2.379 2.701-3.229 3.111-3.261.042.043.106.118.148.193-.347 2.702-4.436 5.866-1.346 8.094.021.097.053.236.053.333a8 8 0 0 1-.431.528M424.299 182.174c-.032.064-.095.118-.127.194-.252.398-.609.699-.851 1.108-.315.452-.452 1.001-.788 1.432a1.3 1.3 0 0 1-.82.473c-1.094.258-3.679-1.119-3.89-1.743-.147-.474.305-1.012.726-1.367.126-.119.431-.409 1.166-.883.862-.635 1.787-1.184 2.691-1.797 2.271 1.894 2.271 1.894 1.893 2.583"></path><path fill="#DFE3FF" d="M416.764 186.693c.042-.129-.032-.301-.21-.495 0 0 0 .022.01.022.032.183.126.581.168.473zm-.253-.57c.011.021.043.043.043.075-.221-.936-.41-2.12-.505-2.744-.557-.043-1.093-.076-1.65-.119 0 .216-.021.614.399 1.195.494.614 1.167 1.044 1.713 1.593M419.222 188.987c-.358.71-2.113.743-2.407.043-.179-.43.42-.936 1.429-.882.904.064 1.114.548.978.839M426.19 190.601c-.231.786-.725 1.238-.936.85-.252-.538.253-2.088.81-2.109.336.054.305.764.126 1.259M434.527 185.65c-.421.99-2.576 1.044-2.965.096-.22-.57.515-1.259 1.735-1.237 1.114.086 1.387.732 1.23 1.141M424.544 172.692c-.305.764-1.177 1.022-1.461.452-.252-.549.305-1.518 1.03-1.518.568.087.589.668.431 1.066M446.175 176.545c-.252 1.012-.673 1.636-.883 1.324-.336-.473.21-3.035.81-3.099.357.096.252 1.087.073 1.775M453.074 176.093c-.578 2.088-2.944 2.874-3.879 1.324-.915-1.517.305-4.176 2.355-4.197 1.587.193 1.829 1.786 1.524 2.873M467.473 171.217c-.168.549-1.461.614-1.766.065-.168-.334.211-.743.967-.721.684.043.894.398.799.656M468.125 166.879c-.21.764-1.314.958-1.692.28-.273-.527.147-1.248.946-1.248.652.064.841.602.746.968M461.659 156.665c-.168.808-.778 1.217-1.051.743-.326-.57.073-1.948.736-1.97.42.044.473.754.315 1.227M470.95 139.349c-.231.624-1.903.624-2.134.022-.116-.312.294-.721 1.177-.689.82.043 1.052.43.957.667M482.208 131.136c-.105.549-.515.872-.746.527-.284-.398-.074-1.356.42-1.388.326.054.368.538.326.861M477.592 131.277c-.126.398-1.261.398-1.419.022-.105-.226.158-.485.767-.485.599.044.736.302.652.463M417.413 146.808c-.252.506-.851.667-.956.312s.347-1.001.778-1.001c.347.054.326.431.178.689M411.95 157.042c-.41.883-.83 1.431-.925 1.162-.126-.43.83-2.669 1.272-2.733.242.075-.074.958-.347 1.571M413.777 151.415c-.252.409-1.293.409-1.409.022-.073-.237.305-.528.894-.506.484.064.62.29.515.484"></path><path fill="#DFE3FF" d="M534.946 123.561c-.189.172-.483.258-.725.355-2.134 1.001-4.751-.452-6.749 1.389-2.249 2.066-4.162 3.723-4.162 3.723-.084 0-6.928-.096-9.619-2.443-2.743-2.4-4.215-2.271-5.171-2.184-1.441-2.099-1.441-2.099-1.64-2.25-.421.183-1.567.614-1.377 1.636.115.71 2.48 3.283 3.868 4.359.767.549.767.549 1.282 6.059.368 4.069-1.587 8.255.442 12.291l1.43 8.46c-1.809 1.366-5.404 2.281-5.404 2.281-4.015-.409-4.866-7.717-9.649-5.564-1.451.646-1.483 2.82-3.206 3.196 0 0-1.651-.183-2.544-2.034.126-.193.263-.452.389-.645 6.223-1.313 3.111-6.081 3.09-6.124-.116-.151-.368-.237-.536-.334-.809.646-1.535 1.431-2.428 1.991a3.5 3.5 0 0 1-.62-.226c-.558-1.84-.011-3.735-.148-5.586-3.416-2.314-3.668 3.67-3.206 5.651.263 1.108 1.083 1.937 1.461 3.002a3.6 3.6 0 0 1-1.408.097c-.126.14-.358.312-.484.452 1.325 4.768 6.801 4.273 9.23 7.631-.305.291-.305.291-12.394-1.044-1.261-.151-2.323-1.076-3.668-.764-.705.172-7.863 3.401-7.905 3.422-.81-.807-.704-2.109-1.524-2.895-1.325-1.291-4.11-.376-4.531-2.916-.053-.291-.042-.7.053-.98.599-2.088 2.638-3.282 3.237-5.349.515-1.679-.778-3.304-.178-4.961.988-2.659 3.752-3.089 5.581-4.704 2.008-1.775 4.741-2.152 6.822-3.799 2.481-1.991 3.417-2.734 3.038-6.005 0-.065-2.649-2.486-3.731-.216-1.903.313-3.837.097-5.729.409h-.694s-2.134 1.335-3.353 6.673c-.063.409-.211 1.001-1.998 1.378-1.492.312-2.648.581-4.393 2.335-1.104 1.12-3.501.829-3.553 3.078-12.247 3.337-5.456 16.198-5.267 16.306 1.325.667 1.325.667 1.451 1.313-4.962 1.829-11.532 6.156-11.553 6.177-2.396 2.465-.904 6.383-3.153 8.89-3.07 3.487-3.07 3.487-4.352 3.391-1.156-.076-2.218-.151-2.933.591-.315.291-.62.786-.925 1.055l-5.14 3.982c-1.651.98-2.25.883-2.933.765-.736-1.615-.83-3.81-.83-3.821.021-.258.021-.549.073-.797.326-2.357 3.375-2.507 3.774-4.821.399-2.357-3.543-3.143-2.197-5.661.032-.076 4.037-5.995 9.723-4.844.116 1.561-.977 2.68-1.303 4.069 2.912.333 6.013-2.454 6.391-4.327-.179-.204-.357-.441-.504-.613-2.639.054-2.639.054-2.849-.097.2-2.626.62-5.22.893-7.825-1.209 3.778-2.092 4.101-2.859 4.37-.137.366-.21.958-.21 1.388-.662.356-.662.356-2.607-.075-1.798 1.335-2.092 4.337-4.835 4.65.115-1.636.956-3.036 1.398-4.532-.957-1.474.115-3.465-1.136-4.886-.599-.721-1.934-1.022-2.249.98-.137 1.011.284 2.034-.063 3.056-4.962.721-8.609 5.22-13.897 5.026-.042 0-4.352-3.885-3.143-5.65 1.03-1.496 2.891-.732 4.152-1.604-.305-2.55-.305-2.55.095-3.142 1.219-1.851 3.542-2.379 4.772-4.198-1.051-.021-2.06.291-3.09.334-.137-.14-.337-.355-.463-.506.305-.355.726-.861 1.02-1.248a8 8 0 0 1-.105-.614c2.428-1.474 10.007 1.152 7.863-2.12-4.394-.549-4.394-.549-4.605-.721-.031-1.808 1.399-4.886 1.42-4.94 5.707.355 6.044.387 9.681-3.197.704.409 1.125 1.077 1.682 1.625 1.188-.957 1.23-2.895 2.806-3.497 1.199.796 2.481-.097 3.69.215l.273.021h.095c2.554.678 3.994-.075 4.32-2.238-.357-.388-1.555-1.528-.746-2.185 2.113-1.657 4.962-1.711 7.032-3.423 2.534-2.066 3.49-5.51 6.213-7.426l21.686-14.109c.189-.022.441.043.63.043.19.387.284.925.253 1.334 1.65.506 2.491-1.055 3.742-1.55 0-.43.084-1.022.168-1.463 1.524.086 1.892 2.281 3.574 2.023.074-2.303.095-3.713 2.922-4.725.232 1.066-.462 2.088 0 3.121.873 0 .873 0 4.867-3.885l5.992 4.101c-.347.839-.463 1.119-1.451 1.388-.525-.334-.977-.839-1.587-1.098-.252.592-.515 1.195.305 1.981 2.439 2.292-2.081 2.862-2.271 2.712-1.377-.937-1.513-.743-5.382 4.294 1.43.592 7.653-3.207 8.63-5.274.799-1.657.799-1.657 5.109-.193.557 1.259.557 1.259 1.135 1.539.021.376.095.904.169 1.313.368-.097.841-.431 1.051-.764-.168 2.314-.168 2.314.662 2.959 2.081-.355 2.176-4.025 4.825-3.293 4.184 1.162 5.929 6.005 10.186 7.082l12.688 4.057c-.011.076.031.248.031.366M359.768 184.618c-.358.549-1.02.764-1.104.333-.116-.43.431-1.151.957-1.151.389.086.315.516.147.818M363.182 169.441c-.62.958-1.576 1.356-1.65.678-.126-.678.904-2.098 1.703-2.098.505.086.263.882-.053 1.42M368.241 163.704c-.462.688-1.083 1.022-1.135.635-.084-.517.704-1.679 1.251-1.679.336.064.126.635-.116 1.044M362.079 166.373c-.441.614-1.65.689-1.734.097-.032-.355.526-.915 1.314-.871.683.064.61.538.42.774M365.623 160.54c-.557.85-1.177 1.345-1.219.99-.095-.506 1.124-2.4 1.65-2.454.284.108-.084.893-.431 1.464M362.794 163.672c-.273.409-.841.506-.883.172-.042-.291.379-.743.81-.721.294.054.231.366.073.549M386.134 154.32c-.441.624-1.472.774-1.577.193-.063-.409.526-1.065 1.251-1.044.568.086.526.538.326.851M389.485 156.022c-.368.613-1.188.807-1.293.279-.074-.43.525-1.108 1.093-1.108.473.086.378.57.2.829M379.884 142.449c-.515.678-1.345.915-1.429.388-.042-.495.725-1.345 1.398-1.324.452.075.294.603.031.936M387.475 137.207c-.967 1.313-2.081 2.012-2.123 1.334-.105-.861 1.766-3.379 2.722-3.422.537.129-.021 1.291-.599 2.088M390.883 136.442c-.515.678-1.167 1.012-1.23.592-.031-.505.873-1.646 1.409-1.646.357.075.105.645-.179 1.054M401.668 145.957c-.231.312-1.167.291-1.188-.021 0-.194.326-.355.768-.334.441.022.515.237.42.355M404.895 144.492c-.273.506-.578.808-.62.668-.105-.259.567-1.561.914-1.582.126.053-.094.57-.294.914"></path><path fill="#DFE3FF" d="M415.373 153.287c-.368.57-1.986.548-2.039-.043-.053-.28.42-.668 1.261-.614.715.054.925.388.778.657M425.7 140.393c-.273.452-1.303.474-1.398.043-.042-.258.347-.57.914-.549.537.054.579.345.484.506M440.132 134.819c-.252.387-2.008.312-2.092-.097-.042-.194.347-.409 1.188-.366.809.054 1.02.291.904.463M447.542 128.134c-.273.43-1.735.409-1.871-.065-.074-.204.326-.495 1.093-.441.694.054.872.312.778.506M451.095 125.325c-.22.474-.946.603-1.082.173-.116-.334.273-.786.757-.786.42.032.441.366.325.613M460.395 114.304c-.21.356-1.471.313-1.524-.043 0-.172.336-.333.894-.333.525.043.725.237.63.376M462.93 114.067c-.189.496-.536.818-.651.549-.148-.355.231-1.356.599-1.377.242.032.168.495.052.828M467.19 110.784c-.263.646-1.114.85-1.367.334-.21-.452.242-1.141.915-1.141.547.043.578.495.452.807M469.847 113.132c-.305.571-2.354.506-2.491-.075-.042-.28.473-.549 1.398-.527.925.086 1.209.409 1.093.602M472.601 108.601c-.21.506-1.272.549-1.429.075-.095-.29.252-.645.841-.624.504.054.672.312.588.549M478.256 106.191c-.168.43-1.188.473-1.388.075-.094-.247.169-.549.81-.549.473.033.672.269.578.474M481.864 106.146c-.116.237-1.072.194-1.167-.021-.063-.129.189-.237.62-.216.421.022.589.13.547.237M485.826 104.371c-.105.528-.421.807-.599.549-.232-.334-.021-1.367.389-1.399.252.022.262.506.21.85M492.849 101.897c-.126.408-1.104.452-1.356.043-.126-.237.126-.549.683-.528.515.032.683.302.673.485M483.756 87.936c-.252.807-1.135 1.152-1.398.549-.295-.603.22-1.636.946-1.636.546.043.588.678.452 1.087M484.267 74.494c-.305.646-.967.904-1.125.473-.178-.43.358-1.334.946-1.334.389.043.337.549.179.86M496.222 80.575c-.042.43-.557.57-.788.237-.21-.29-.021-.764.399-.764.316.032.431.334.389.527M498.448 74.16c-.01.355-.42.506-.652.237-.21-.258-.073-.721.295-.721.262.032.378.29.357.484M500.572 73.267c0 .365-.378.505-.599.247-.231-.258-.147-.689.21-.721.274.032.389.29.389.473M503.646 69.296c.042.28-.211.43-.442.258-.252-.194-.284-.646-.021-.689h.053c.241.022.399.259.41.43M492.952 74.085c-.095.377-.536.506-.704.194-.147-.237.073-.668.399-.668.294.022.347.28.305.474M514.217 134.214c.021.786-.61 1.195-1.125.721-.599-.549-.494-1.819.189-1.883 0 0 .063-.022.084-.022.568.054.852.732.852 1.184M551.66 114.067c.063.355-.452.431-1.156.495-.799.097-1.156.172-1.503.388-1.083-1.356-1.913-2.239-2.502-2.594-.084-.054-.231-.119-.252-.269-.148-.592 1.072-2.207 1.545-2.228.168.021.326.032.725.473.578.646 1.072 1.4 1.629 2.045.41.474.894.84 1.272 1.313.169.183.242.302.242.377M567.197 109.516c.715 1.076 1.24 1.969.536 1.829a1.6 1.6 0 0 1-.42-.172c-.579-.333-1.062-.882-1.693-1.195-1.682-.828-1.682-.828-1.745-.871-.189-.097-.578-.355-1.051-.786-1.177-1.022-1.104-1.905-1.083-2.196 1.23.668 2.271 1.098 3.133 1.292.284.065.473.161.704.312.21.129.81.56 1.619 1.787M569.812 94.35c.567.646.326 1.13-.557 1.088-1.504-.097-3.427-1.636-2.712-2.196.136-.13.399-.13.536-.13 1.135.022 2.291.733 2.733 1.239M575.251 95.46c.231.237.304.431.168.431-.358 0-1.241-.764-1.104-.926.021-.021.053-.021.074-.021.252.021.651.301.862.516M576.288 94.835c.316.312.41.549.211.549-.41 0-1.588-.98-1.399-1.184.022-.022.043-.022.043-.022.357 0 .872.388 1.145.657M580.389 96.536c.326.333.326.58 0 .592-.704 0-1.945-.958-1.619-1.238.084-.043.147-.043.221-.043.484-.01 1.125.398 1.398.689M579.548 94.21c.641.593.978 1.045.725 1.088-.599.022-3.017-2.023-2.764-2.314 0-.022.042-.022.073-.043.421.032 1.419.786 1.966 1.27M576.574 89.152c.168.15.21.258.084.258-.253.065-.988-.366-.894-.549.021-.021.074-.021.095-.043.231.022.546.183.715.334M577.676 88.958c.095.086.042.119-.094.119-.252.021-.662-.14-.557-.237.042-.054.105-.054.136-.054.232 0 .431.097.515.172M567.902 84.362c.252.193.252.355.01.387-.546.043-1.619-.549-1.366-.796.042-.043.136-.043.189-.043.441 0 .946.258 1.167.452M566.597 82.64c.084.044.589.431.568.507-.168.021-1.672-.98-1.598-1.109h.032c.136.01.693.388.998.603M570.897 78.24c.305.15.473.312.389.334-.178.064-1.471-.592-1.44-.754h.021c.232 0 .736.237 1.03.42M565.862 76.14c.168.097.315.194.273.216-.063.021-.956-.356-.935-.474h.021c.094-.01.399.118.641.258M561.312 77.078c.389.236.557.43.505.452-.252.097-1.871-.829-1.735-.99h.042c.242.01.852.312 1.188.538M558.746 74.439c.115.043.494.258.515.333-.063.097-1.419-.624-1.472-.764h.011c.147.011.662.27.946.43M566.988 73.268c.116.064.578.269.61.344-.095.097-1.724-.602-1.766-.742v-.022c.2 0 .809.258 1.156.42M571.937 73.417c.147.076.62.259.684.334v.021c-.221-.021-1.693-.645-1.809-.774.148.01.768.258 1.125.42M559.82 70.513c.094.043.399.193.399.236-.063.044-1.188-.408-1.188-.505.116 0 .515.15.789.269M539.983 71.072c.147.108.231.204.105.204-.221.065-.946-.355-.883-.473.021-.022.063-.022.063-.022.221-.01.547.162.715.29M534.588 67.036c.295.173.452.28.389.313-.189.043-1.408-.57-1.377-.69 0 0 .011-.02.042-.02.21.02.684.236.946.397M525.99 67.476c.283.215.41.377.347.377-.2 0-1.188-.721-1.136-.818l.011-.022c.147.022.546.29.778.463M523.068 65.486c.179.108.515.344.515.344-.095.043-1.314-.807-1.335-.882.063.021.463.29.82.538M525.591 68.53c.346.29.473.527.304.549-.368.065-1.797-.98-1.587-1.195l.063-.021c.305.021.862.355 1.22.667M523.5 66.842c.095.097.126.172.042.172-.178.021-.609-.237-.525-.334 0-.021.01-.021.01-.021.21 0 .389.118.473.183M523.066 68.498c.179.172.515.506.515.55-.084.042-1.367-1.099-1.388-1.217h.021c.095.032.515.366.852.667M525.154 69.769c.011.043.011.076-.043.076-.106 0-.244-.098-.244-.098.043-.043.064-.043.096-.043.063-.011.148.043.191.065M521.662 66.757c.042.043.064.076.064.076-.064 0-.255-.153-.234-.174.053 0 .127.043.17.097M521.29 66.519c.137.118.137.215.042.215-.252.022-.788-.312-.704-.452.011-.021.063-.021.063-.021.252.01.505.15.599.258M520.735 67.175c.095.097.116.172.021.172-.168 0-.504-.258-.452-.344h.032c.137 0 .294.108.399.172M524.027 70.027c.168.172.189.29.063.29-.242 0-.809-.506-.704-.624l.042-.022c.168.022.42.194.599.356M522.175 69.103c.304.333.399.581.21.581-.379 0-1.482-1.022-1.325-1.216.021-.022.042-.022.042-.022.305.011.81.388 1.073.657M522.405 68.498c.304.312.452.55.304.55-.325 0-1.513-1.077-1.345-1.217h.042c.231.032.715.409.999.667M519.369 68.671c.652.721.967 1.292.725 1.292-.473 0-2.827-2.475-2.649-2.798 0 0 .021-.022.042-.022.358.032 1.251.84 1.882 1.528M517.065 67.554c.115.14.115.215.042.215-.158 0-.557-.388-.442-.463h.021c.126 0 .316.15.379.248"></path><path fill="#DFE3FF" d="M519.105 67.434c.189.204.147.387-.095.355-.462 0-1.219-.57-1.009-.775.042-.043.137-.043.2-.043.347.032.746.301.904.463M520.168 66.013c.178.14.473.43.515.474-.137 0-1.314-1.022-1.335-1.087.084 0 .483.323.82.613M519.41 64.787c.095.064.137.14.063.172-.137 0-.557-.29-.515-.366l.021-.022a.97.97 0 0 1 .431.216M519.467 64.549l-.033-.023zM519.41 64.53c0-.024 0-.024-.012-.024.012-.012.012-.012.012.024M519.401 64.496l-.034-.022zM519.373 64.48l-.025-.027zM519.351 64.456l-.035-.035zM519.316 64.42c-.021 0-.021 0-.043-.022.022.022.022.022.043.022M519.278 64.404l-.026-.026zM519.255 64.382s-.026 0-.026-.026c-.013.026.026.026.026.026M519.133 64.28s.022.044.043.044c-.021 0-.043-.022-.043-.022zM519.137 64.28c-.022 0-.043-.022-.043-.022s.01.021.043.021M519.012 64.205s.021.022.043.055c-.011-.022-.043-.055-.043-.055"></path><path fill="#DFE3FF" d="M519.016 64.208c-.023-.023-.046-.023-.069-.047.023.023.046.023.069.047M518.948 64.166l-.026-.026zM518.893 64.119c0 .026 0 .026.025.026-.025 0-.025 0-.025-.026M518.866 64.124l-.012-.027zM522.615 65.882c.273.194.42.366.347.398-.189.043-1.304-.753-1.188-.85 0 0 0-.021.021-.021.168.021.589.312.82.473M557.369 105.082c.263.538.21.743.126.904-.337.151-3.763.495-5.067-.086-.515-.226-.683-.656-.851-1.13-.137-.409-.442-1.248-1.64-2.109-.767-.571-1.608-1.098-2.355-1.722-.22-.173-.231-.56-.536-.646-.778-.291-.914.786-1.577.786-.042-.065-.115-.173-.147-.237-.273-.84-.305-1.754-.673-2.573-1.208-2.626-1.208-2.626-1.145-2.884.042-.15.252-.269.399-.312l3.616-.915c.074 0 .21 0 .263.054.042.043.399.474.463 1.722.094 1.507 2.712 3.907 2.827 3.993.4.398.547.506 1.924 1.421 3.784 2.486 3.994 2.938 4.373 3.734"></path><path fill="#DFE3FF" d="M549.085 103.38s.463 1.077.347 1.346c-.21.409-.767.279-1.093.161-.252-.097-.662-.258-1.398-1.539 0 0-.873-1.507-.515-1.69.01-.021.084-.021.105-.021.526.075 2.155.925 2.554 1.743M548.476 80.854c.516.57 1.104 1.356 1.167 1.776.021.108.021.108-.252.388-.168.193-.494.527-.536.871-.042.71.494 1.292.515 1.98.021.291-.21.334-.4.388-.231.043-.746.172-.84.646-.169.915.304 1.776.21 2.701-.042.356-.042.614-.042.743v.237c.021.172 0 .258-.189.527-.347.495-.232.667.21 1.292.935 1.345.862 1.657.82 1.85-.211.076-.211.076-.368.022l-4.026-1.205c-1.703-1.022-1.398-2.314-1.377-2.335.021-.044.115-.076.189-.097v-.097c-1.135-.926-2.344-2.379-2.292-3.078.326-.312.358-.937.967-.958.169 0 .326-.043.326-.119.305-.764-1.398-1.625-.536-1.84.557-.15 1.135.118 1.682-.172.231-.14.116-.398-.042-.732-.494-.958-.515-1.076-.399-1.367.252-.075.252-.075 1.072.15.504.12.862.216.967.065.042-.064.189-1.528.105-2.023-.011-.215-.095-.743.063-1.378 2.376 1.077 2.733 1.486 3.006 1.765M541.519 65.808c.031.021 1.692.796 1.871 1.13-.253.355-.631-.215-.915.118.074.259.368.259.494.463-.42-.021-2.407-.678-4.026-1.464-.094-.043-.231-.096-.326-.183a.4.4 0 0 1-.136-.172c-.074-.183-.137-.269-.652-.56-.652-.333-1.419-.43-1.966-1 0-.022.032-.022.032-.022s5.182 1.496 5.624 1.69M553.995 70.2c.631.311.631.408.652.473-.21.075-.42-.022-.631.075-.021.086.053.14.021.237-.956.323-5.665-1.453-5.707-1.474-.516-.216-5.151-2.831-5.193-2.992 1.261.193 2.291.968 3.458 1.399.494.161.494.161.494-.388.316-.14 6.833 2.648 6.906 2.67M542.84 67.715c.116.075.273.172.252.215-.042.043-.378-.076-1.135-.355zM544.636 68.887c.042.022.011.043 0 .043-.126.021-.452-.043-.41-.096 0-.022.063-.022.063-.022.179 0 .305.054.347.075M549.885 70.295c.126.076.777.41.841.538-.211.086-2.366-1.033-2.408-1.151l.021-.022c.211.01.957.345 1.546.635M558.703 70.436c.673.334 1.934 1.13 2.186 1.442v.043c-.651.14-1.188-.334-1.787-.377.095.119.095.119.463.313 1.261.72 1.829 1.259 1.829 1.259-.4.097-9.124-4.058-9.208-4.1.168 0 .777 0 .599-.238-.095-.118-.232-.172-.347-.29l.01-.022c.042-.01 5.792 1.733 6.255 1.97M583.48 69.791c1.43.485 2.88.883 4.289 1.432-.757 0-1.409-.398-2.134-.474v.108l.074.064c-.021.022-.116.044-.169.044.284.172 5.477 1.614 5.803 1.678.536.119 1.188.28 1.661.754v.075c.578.355 1.209.55 1.797.829-.557.054-1.051-.334-1.608-.334l.179.334c-1.03.237-13.582-4.144-13.687-4.197 1.083-.334 1.998.473 3.028.452-1.314-.958-3.133-.312-4.373-1.507.136 0 .252.021 1.083.237 2.26.591 2.354.409 2.438.258-.042-.043-.052-.118-.084-.172.284-.033.295-.054 1.703.42M586.095 69.478l5.687 2.023c-.042.043-7.642-1.431-8.094-2.217.021-.022.073-.043.094-.075.042.01 1.009-.13 2.313.269M608.391 77.625c.095.054.221.118.284.194v.043c-.189.129-.767.14-1.713.075.409.215.662.366.777.506l-.021.043c-.441 0-8.23-3.315-8.304-3.336.021 0 .021-.022.021-.022 1.051-.021 8 2.023 8.956 2.497M588.822 73.537c.883.312 1.945.71 2.134.807-.347-.076-4.919-1.765-4.94-1.808.273.096 1.65.57 2.806 1M602.801 77.484c.168.043.631.237.631.334-.137.118-1.892-.528-1.871-.668 0-.032 0-.032.021-.032.221-.021.851.194 1.219.366M601.287 76.119c.81.312 1.703.656 1.829.743-.199.021-4.204-1.486-4.362-1.593.189-.011 1.461.441 2.533.85M573.463 66.777c.158.043.705.194.831.259-.105.043-1.935-.474-2.019-.55.116 0 .789.173 1.188.291M577.24 67.058c.231.043 1.451.42 1.682.55-.147.128-3.952-1.002-4.184-1.12v-.022c.2-.021 1.577.334 2.502.592M565.873 64.044c.62.14 1.272.312 1.366.355-.126.043-3.09-.721-3.206-.764.116 0 1.051.215 1.84.409M566.346 63.926c.504.118 1.272.312 1.429.355-.21-.021-3.227-.764-3.248-.785.19.021 1.167.269 1.819.43M595.136 82.296c.61.345.915.603.726.657-.452.15-2.954-1.012-2.839-1.292 0-.021.042-.053.095-.053.452-.011 1.451.398 2.018.688M596.074 68.024c6.181 1.668 7.485 2.292 7.485 2.292-.042-.021-9.429-2.572-9.934-2.884.084-.065.084-.065 2.449.592M469.684 940.581c-2.07-.054-4.131-.226-6.191-.226-1.608-.044-5.897-.237-6.034-.27-3.847-.226-4.52-.269-6.286-.387l-.305-.032c-1.408-.108-2.176-.205-3.069-.355 2.985.107 5.928.495 8.893.635.115 0 .231 0 .347.021.136 0 .252 0 .399.032h.421c.136.022.304.022.441.043h.4c.115.022.262.022.378.022.095 0 .21.032.305.032h.21c2.838.183 2.838.183 3.29.183 1.945-.021 3.816-.785 5.771-.753.631.032.778.775 1.325.893 2.302.495 4.478-.323 6.717-.495.693-.054 1.45-.151 5.245-.829 2.081-.366 4.257.043 6.276-.742l7.547-1.41c.137-.022.336-.054.494-.076.4-.043 3.974-.495 5.603-.301-.095.183-.095.183-5.592 2.023.347.087.347.087 2.081-.086-.305.162-.305.162-1.44.506 1.987.355 3.9-.646 5.897-.387-.284.118-.652.269-.946.344.462.086.967 0 1.451.086-.484.172-1.167.452-6.339 1.087-6.213.259-17.775.732-27.289.442M505.172 939.665c2.649-.226 2.649-.226 20.309-2.949-.148.065-.148.065-2.134.635.126.011.252.011.357.011-.21.108-.21.108-.578.248.767.183 1.514-.205 2.26-.205-.221.119-.221.119-1.535.463 1.094-.032 2.197-.291 3.28-.398.021.054.063.107.095.183 4.099-.226 8.031-1.421 12.057-2.013-2.197.807-4.72.237-6.77 1.604 1.524.021 2.964-.398 4.478-.56-.389.097-.389.097-1.388.291-12.771 1.399-16.493 1.754-30.431 2.69M399.563 932.895l-1.934-.377c-1.335-.269-1.756-.366-1.871-.398 2.218.463 2.249.474 3.805.775M341.716 911.768c.053.022.105.065.116.119-1.23.226-9.871-3.197-11.279-4.144 0-.021.042-.054.063-.054 6.055 1.41 11.058 4.047 11.1 4.079M390.043 930.926c.221.054.462.107.694.161z"></path><path fill="#DFE3FF" d="M400.113 932.992c.431.086.883.194 1.324.258-.515-.064-3.269-.624-3.3-.656.662.14 1.303.269 1.976.398M379.386 927.525c.599.183.977.313 1.082.356-.189 0-2.754-.786-2.995-.872.347.043 1.85.495 1.913.516M381.611 928.946c.642.151 1.293.334 1.924.495a597 597 0 0 1-4.867-1.205c.988.204 1.966.473 2.943.71M379.141 927.622c.127.053 1.472.43 1.651.527-.221.054-3.28-.883-3.532-1.001h.052c.368.043 1.409.355 1.829.474M300.397 899.833c1.661.861 3.279 1.808 4.961 2.594 3.869 1.808 3.869 1.808 4.174 1.948-.421-.097-10.249-4.682-11.038-5.263l.032-.043c.042.011.115.043.115.043.831.226 1.335.527 1.756.721"></path><path fill="#DFE3FF" d="M303.896 901.846c1.251.581 2.292 1.065 2.88 1.399-.441-.108-10.711-4.908-11.321-5.36.042 0 .095 0 .147.022 2.87 1.044 5.487 2.615 8.294 3.939M451.725 722.8c-.515 1.41-3.816 4.488-6.822 6.963-3.217 2.562-3.217 2.562-4.92 2.519-1.314-.097-5.319-.743-.851-4.531.073-.054 7.978-6.114 9.187-6.609 1.598-.667 3.585-.193 3.49 1.26.011.118-.042.29-.084.398m40.428-16.047c-.168.527-.378.581-.725.656-1.041-.15-4.709-2.776-5.393-7.49a17 17 0 0 1-.168-2.153c-.042-2.066.463-4.1.515-6.135 0-.29-.031-.699-.094-.957-.358-1.636-.642-3.789-.421-8.578.063-1.507.484-3.972 1.167-4.477.788-.592 1.314 1.076 1.64 2.174.136.376.252.914.326 1.323l1.955 9.052c-.053.419-.284.904-.368 1.27-.126.516-.042 1.248-.032 1.765.042 2.916-.304 3.756-1.681 5.607-.347.452-.862 1.216-.768 1.797.484 2.648 4.993 2.766 4.047 6.146m-39.167-38.207c-.21 1.625-.347 2.787-2.617 5.736-1.493 1.948-1.493 1.948-3.301 1.948-2.502-.226-3.774-2.841-.305-5.844 1.419-1.248 4.405-3.078 5.057-3.315 1.24-.473 1.219.528 1.219.958-.032.151-.032.355-.053.517m14.002-3.089c-1.451 5.144-1.451 5.144-2.123 5.327-1.188-.193-3.501-2.034-4.972-3.96a7 7 0 0 1-.652-.969c-.988-1.582-1.419-3.433-2.407-5.037-.81-1.324-1.987-2.303-2.839-3.584-.462-.71-.882-1.786-1.366-2.497-.873-1.248-2.302-2.023-2.849-3.53-.21-.656-.231-1.582-.168-2.249.095-1.087.915-2.454 1.051-3.552.358-3.056.358-3.056.41-7.577.021-1.722.053-4.961.536-5.661.116-.226.421-.355.631-.495.725.14 1.577 1.464 1.577 1.464 2.785 6.393 1.282 13.679 4.047 20.05.956 2.25 1.619 2.68 3.406 3.8 6.811 4.466 6.012 7.351 5.718 8.47m25.87-53.06c-.095.269-.274.603-.4.861-.725 1.378-3.069 2.54-4.184 3.121-2.239 1.109-2.586 1.421-2.838 2.088-.914 2.53 2.691 4.725.473 7.308-.389.398-.389.398-6.79 2.465-.095 0-.19 0-.274-.022-.283 0-.536 0-.788-.021-.368 0-.767-.022-1.135-.054-.473 0-.967-.022-1.451-.043-.484-.022-.999-.054-1.514-.065-.515 0-1.019-.021-1.545-.053-.473-.022-.935-.054-1.408-.054a20 20 0 0 0-1.157-.043c-2.691-1.098-.872-12.56-.305-14.81.568-2.281.946-3.756 5.509-5.704 2.133-.915 4.499-1.141 6.601-2.206.399-1.206.2-2.045-3.795-6.533-1.587-1.797-1.713-1.948-1.198-2.648.851-1.173 6.023-1.872 12.887-1.7h.021c1.199.28 3.206.764-1.902 5.769-1.314 1.291-1.577 1.528.21 2.97 1.472 1.216 1.472 1.216 2.071 2.067.305.419.231 1.237.515 1.678.788 1.324 2.407 1.981 2.712 3.671.073.591-.116 1.399-.315 1.958M352.41 497.281c-.379 2.109-1.157 4.122-1.703 6.177-4.173-.925-6.57-2.335-7.18-4.132-1.482-4.51 1.072-9.127 2.492-10.117 1.387-.958 2.491.43 3.595 1.797 2.701 3.444 3.206 4.068 2.796 6.275m290.177 26.616c5.267-16.984-30.946-2.035-31.325-1.873-5.886 2.658-11.405 5.177-21.959-3.089-.21-.172-.231-.172-.273-.172h-.7989999999999999c-.231 0-.452-.022-.673-.022-.294 0-.567 0-.851-.021h-.978c-.399 0-.767-.022-1.156-.022-.421 0-.82-.021-1.241-.021-.283-.937-.662-2.185-.935-3.121.914-1.432 2.291-3.272 3.458-4.542-.252-2.206-3.09-21.385-24.461-19.168-15.484 1.636-15.484 1.636-39.839-33.612l-11.416-40.543c-3.427-5.122-14.517-29.166-14.559-29.306-3.542-10.537-12.246-34.365-16.682-27.929-4.73 0-9.314 1.658-14.054 1.399-.389-.807-.862-1.851-1.241-2.615-18.175-2.486-19.268-2.637-23.462-8.503-1.661.173-3.816.765-5.372 1.335-12.614-14.207-23.136-6.005-26.048-3.164 2.702 17.102-10.764 11.591-14.811 8.502-3.784-2.895-3.784-2.895-11.647-5.273-.998-2.777-.999-2.777-1.598-9.342-8.062-5.844-20.561-1.658-26.573-12.227.22-.333.22-.333 8.998-10.267-.284-1.808-.852-4.197-1.472-5.898 1.545-1.98 1.545-1.98 6.276-6.285-3.406-1.776-3.406-1.776-8.147-2.153-6.118-.355-18.774-1.194-18.774-1.194-2.428.688-2.428.688-8.746 3.982-17.386-8.61-33.921 8.491-51.245 1.722h-.094c-12.667-.592-19.006-.883-38.305 19.092-5.109 5.274-5.309 13.54-10.859 18.523-5.666 5.123-14.096 3.993-19.741 9.148-8.872 8.029-38.105 35.646-41.995 53.738 14.885 22.945-20.067 38.465-8.672 60.894-4.541 4.693-4.877 12.033 2.47 16.176-.094 4.876 3.459 9.009 2.828 14.035 5.582 4.316 5.193 6.92 4.772 9.923-1.65 11.494 17.902 34.322 26.416 40.069.915.592 5.54 1.41 12.404-1.378 3.385-1.399 3.385-1.399 29.99 1.023 7.401-7.265 36.245-11.71 38.757-4.101 4.047 12.28 11.816 16.349 23.084 12.108 5.288 4.284 13.161 13.4 6.36 26.272-4.405 8.276 6.023 17.048-.768 25.292-1.093 1.345 15.526 19.781 15.726 19.975 2.67 2.594 5.424 5.274 10.533 18.77.347.926.652 2.249.652 3.218 0 12.818 19.383 19.093 11.678 34.29-8.283 16.294-10.018 19.684-8.031 31.502.095.43 1.903 10.784 10.67 18.78 1.797 1.647 4.257 3.95 5.592 6.049l44.843 72.077c-5.823 8.04 11.363 14.077 11.616 14.067 13.034-1.97 13.034-1.97 27.74-1.819l32.282-26.552c.715-6.156 5.203-11.795 2.334-18.425 6.359-3.993 14.064-4.639 20.434-8.61-5.371-6.963 1.304-16.488-4.635-23.333 5.455-23.323 40.828-13.723 42.814-40.823 1.745-23.957-13.118-46.785-4.709-71.173.42-1.227 1.051-2.82 1.808-3.885 2.964-4.23 7.264-7.308 10.291-9.181 11.479-7.017 26.553-4.541 36.812-14.755 16.725-16.628 20.309-19.459 27.352-21.557 11.342-3.423 38.915-65.405 39.156-66.007"></path><path fill="#DFE3FF" d="M639.119 313.241c.977 7.48-4.478 8.46-6.886 8.524-.042 0-6.916-.258-11.846-2.798a9 9 0 0 1-1.157-.764l-11.468-9.073c-.862-1.087-.862-1.56-.767-2.238.347-2.218 2.596-3.531 2.659-5.92.221-6.705.221-6.705.431-6.92 2.439-2.54 2.439-2.54 1.808-3.606-1.408-2.271-4.215-2.486-5.918-4.283-1.577-1.636-2.165-3.929-3.753-5.532a25 25 0 0 0-.788-.764c-5.592-4.983-5.592-4.983-5.729-5.177-1.43-1.948-.872-4.617-2.344-6.576-1.177-1.528-3.238-3.433-3.974-4.187-.683-.613-.946-.871-.872-1.614 0-.043 1.65-5.295 1.892-5.554.168-.172.368-.365.557-.484.21-.118.484-.28.694-.409 1.177-.646 2.575-.258 3.732-.904 1.072-.624 1.587-1.808 2.48-2.615 1.073-1.023 2.723-.85 3.785-1.948.189-.194 2.491-3.875 3.059-5.059.168-.355.325-1.001.704-1.097.137-.022 13.15-.926 12.498 11.569-.063 1.679-.809 1.765-3.595 1.916-2.943.14-10.722.527.568 14.519 1.661 2.077 4.72 2.185 6.212 4.509 1.073 1.647-.21 3.229-.147 4.865 2.534 1.507 5.971.904 8.01 3.584 2.008 2.637.883 3.756-.988 5.65-.063.065-4.226 6.544 3.206 5.748 2.071-.216 2.586.043 2.954.258.042.118.137.258.116.409-.095 1.776-2.281 2.228-2.439 3.971-.063.915.515 1.399 1.924 2.529 4.614 3.724 5.108 7.459 5.382 9.471m83.106-69.892c-.126.172-1.125.743-2.828.958-1.251.172-5.382 1.475-7.863 2.648-3.689 1.7-3.406 2.163-2.67 3.39 1.829 2.97 2.092 4.079 2.092 4.079s-.336 1.335-1.135 1.593c-.599-.043-3.974-4.628-5.056-7.319-.126-.333-.473-1.517.998-2.809.484-.43 2.723-1.926 10.943-3.358 3.017-.506 4.941-.333 5.687.506-.042.097-.084.237-.168.312m29.401-60.141c.116.118 9.314 14.239 7.747 17.102-1.524-1.916-2.691-2.185-3.532-2.368-.336-.075-.599-.215-1.009-.753-.494-.668-1.072-2.411-1.419-3.455-1.871-5.608-2.933-7.921-5.886-11.409-2.04-2.443-4.552-4.735-5.75-5.704-.515-.43-3.28-4.208-3.311-4.778.641.269 10.764 8.072 13.16 11.365M635.135 80.382l-10.323-3.853-.42-.183c-5.078-1.765-5.078-1.765-9.398-2.723 5.435 2.379 5.435 2.379 13.035 4.865-.967-.172-2.25-.387-3.185-.581 2.859 1.636 2.859 1.636 12.53 5.295-5.466-1.582-10.806-3.702-16.399-4.865.873.55 2.019 1.303 2.881 1.873-1.493-.355-3.48-.807-5.004-.904-1.976-.527-4.594-1.13-6.57-1.485 1.892.764 4.394 1.797 6.286 2.561-1.86-.624-4.446-1.291-6.381-1.668 6.15 4.736 16.988 10.106 17.072 10.15-8.073-1.992-15.652-5.587-23.599-8.03.672.786 1.534 1.852 2.218 2.659-3.28.753-6.549-.355-9.797.107 3.227 3.197 6.012 6.9 9.628 9.687-29.601-18.781-29.601-18.781-43.15-20.374 3.542 2.626 7.82 3.907 11.258 6.705-1.03-.021-2.418-.021-3.438-.021 1.136 1.593 2.134 4.143 2.408 6.102 1.755 1.076 4.236 2.25 6.128 2.992-.862.538-2.029 1.205-2.901 1.733 5.497 6.414 13.76 8.233 20.372 12.807-5.288-1.862-10.081-4.864-15.369-6.748.347 1.001.81 2.357 1.167 3.38.978.215 2.292.505 3.301.731-.957.377-2.218.904-3.185 1.292-1.777-1.249-4.037-3.067-5.614-4.553.042.98.116 2.304.2 3.304 5.351 2.304 9.135 6.878 13.855 10.117 4.005-.882 4.005-.882 15.599 6.555-3.259-.571-5.855-2.799-8.998-3.638 3.648 5.962 3.648 5.962 4.983 9.008-.463.894-1.104 2.067-1.546 2.949-1.913-.646-4.509-1.356-6.475-1.808.936-.194 2.197-.43 3.154-.613.283-10.472-28.33-27.596-28.634-27.735-.621 5.671-.988 9.072 16.703 18.888-5.666.613-10.323-3.358-15.768-3.659 0 .688-.042 1.635-.052 2.346-21.686 7.975-21.686 7.975-22.327 13.13-5.456-2.68-5.193-4.24-4.552-7.997-.967-.484-2.271-1.119-3.238-1.635-1.377 4.401-1.377 4.401 2.649 9.169-5.308 1.658-10.953.646-16.282 2.164-.116 1.948.704 4.671 1.881 6.21-1.461 1.27-3.721 2.647-5.55 3.358-2.218-1.163-5.214-2.659-7.442-3.778.714 1.98 2.007 4.52 3.321 6.156-.977.151-2.26.355-3.248.506-.862-.786-2.039-1.83-2.901-2.605-.978.097-2.292.237-3.269.334-.81 5.457-.81 5.457 5.329 17.242-1.661.871-4.404 1.205-6.181.699-.862.506-2.039 1.12-2.817 1.722-.83.624-1.577 1.851-2.365 2.465-5.613 4.412-19.899 2.992-17.071 12.775-1.051-.118-2.376-.258-3.406-.377-.305-2.045-.147-4.864.326-6.855a80 80 0 0 0-2.292-2.379c-7.862 1.345-7.862 1.345-9.124 2.379.557 6.974.557 6.974-.809 10.59-.946.355-2.176.818-3.122 1.184-.62-.861-1.44-2.002-2.071-2.863-8.42.506-6.234 10.429-9.555 15.487-.757-.667-1.703-1.549-2.428-2.217-2.776 1.69-4.773 4.521-8.031 5.446-2.597-3.013-5.803-6.78-20.824 1.711-4.089-3.648-10.27-1.926-14.244-5.822-12.193 4.369-12.193 4.369-20.004 4.768-.736.904-1.692 2.098-2.407 3.002-10.06-1.356-15.683 8.75-24.682 10.074-.283 1.13-.641 2.605-.883 3.713-4.341 2.056-8.924 3.477-13.339 5.231-.83-.538-1.924-1.227-2.744-1.754a76 76 0 0 1-4.961 5.015c-1.924-.506-4.394-1.787-5.845-3.143-5.529.904-5.949 1.722-7.768 5.156 2.817 4.821 2.481 10.741 5.266 15.573-3.878 6.544-15.872 18.21-15.956 18.286-8.757-1.281-14.769-13.131-25.46-6.953-1.797 1.044-4.657 2.034-5.844 3.767l-18.88 32.094c-2.249 3.25-2.249 3.25-4.11 9.019 3.627 1.883 4.194 2.174 9.934 3.336-.305 1.905.084 4.628.893 6.383 3.406-.259 6.129-2.82 9.566-3.068.873.786.873.786 18.627-3.379 12.698-24.991 24.713-24.27 29.265-23.979.652-.764 1.534-1.744 2.207-2.519 6.076.355 6.286-1.442 7.285-8.954 15.452-6.791 37.926-3.649 38.084-3.563-.999 8.449-.999 8.449 18.963 32.137h.232c-.211 7.222-.211 7.33-3.28 13.185.978.193 2.323.462 3.322.645 2.67-2.324 4.425-5.65 7.652-7.383a180 180 0 0 1-1.335-6.823c.936-.409 2.239-.947 3.164-1.356.841.71 1.934 1.689 2.786 2.411.862-.689 2.008-1.626 2.88-2.336-2.407-5.37-8.977-7.405-10.375-13.561-9.419-2.109-7.085-12.108-11.332-17.64.326-2.292.999-5.349 1.798-7.49 1.03-.452 2.428-1.023 3.448-1.464.935.441 2.165 1.022 3.111 1.442.042 1.044.137 2.454.179 3.541.977.161 2.26.409 3.195.57 1.546 3.283.442 6.813.852 10.171 2.144.086 5.025.796 7.022 1.647 1.976 6.177 7.852 9.342 10.932 14.691-4.762 10.235-1.724 18.102 8.967 23.344-1.314 1.485-3.196 3.379-4.636 4.724.042.119.042.119 1.219 9.719 2.071-.022 4.867-.474 6.822-1.152 3.038-9.008 3.764-11.139 3.837-27.046 1.63 1.216 4.247 2.346 6.255 2.572.599-.861 1.335-1.959 1.923-2.766-.399-.958-.935-2.228-1.324-3.164 8.21-1.184 16.777 1.894 24.703-2.303.346-4.047.42-4.779-4.1-8.89 6.254-4.746 6.254-4.746 8.872-5.758 7.274-21.385 14.948-20.083 25.554-18.296-.662 4.585 1.44 8.879 1.209 13.399 4.499.603 4.499.603 16.325-5.177-1.756-1.076-4.541-1.851-6.591-1.851-1.104-1.743-2.891-3.874-4.363-5.295.137-.065 16.872-6.059 24.335-3.455-.998-.021-2.333-.086-3.322-.108-.872 3.186-1.639 5.952-8.094 10.752 8.914 7.093 8.914 7.093 43.729 18.953.495 1.098 1.146 2.616 1.64 3.746-6.233 10.342-39.24 7.749-43.151 3.831-.893.506-2.06 1.141-2.943 1.636-7.474-6.544-10.007-8.75-33.722-1.162-.83-.582-1.923-1.4-2.743-1.97-16.43 6.458-16.43 6.458-19.615 6.458-2.176 2.464-2.176 2.464-3.007 9.707-.914.711-2.112 1.679-3.027 2.401.999 2.055 2.817 4.627 4.499 6.166-.137.98-.305 2.271-.431 3.272 12.824 14.454 23.147 12.506 53.726 6.791-1.009 9.622-10.438 40.349-10.533 40.629-6.98 1.098-28.245 4.456-6.339 25.389 4.237-6.339 4.237-6.339 7.411-7.663-.031 2.25.536 5.274 1.409 7.34 1.061.355 2.438.872 3.479 1.227.021.259.021.259 13.455 23.656-.914.689-2.144 1.658-3.09 2.379-.095 1.119-.232 2.637-.326 3.756 3.479 2.992 7.842 4.865 10.743 8.589-5.382 27.25 31.062 23.419 42.962 39.305.136.172 12.446 17.004 5.939 21.944.872.571 2.018 1.335 2.859 1.916.042.291 4.604 28.736 16.136 17.995.767-.742 1.377-2.088 1.976-2.97 16.43-1.001 32.923-11.85 33.059-11.979 12.331 1.507 13.718-13.615 23.378-16.176h.705c3.027-1.216 6.338-1.184 9.523-1.798.663-2.163 1.346-5.101 1.682-7.329 2.218-.172 5.214-.57 7.39-1.151.725-4.252.967-5.651 6.57-7.222.83-3.659-.263-7.329.147-10.999 4.089-2.11 5.498-6.91 9.072-9.525.115-5.016.399-14.315-22.296-23.409-.672-2.066-1.787-4.736-2.712-6.684-1.061-.043-2.46-.086-3.5-.129-8.567 11.495-8.567 11.495-21.223 12.27l-.642.043c-2.113-2.971-2.922-4.09-5.571-13.055-1.02-.173-2.397-.388-3.437-.528-.705.829-1.64 1.991-2.334 2.842-4.856-5.726-19.972-31.728-20.056-31.911.399-.98.935-2.314 1.324-3.294 12.846-1.528 12.846-1.528 24.177 15.746 1.987.312 4.646.743 6.644 1.098.231.699.231.699 25.974 4.552 5.256 7.577 17.565 25.282 57.163 11.613 8.462 6.931 8.462 6.931 9.976 9.417l.725 1.195c1.062.075 2.492.14 3.564.215 1.051 1.948 2.081 4.8 2.481 6.974.862.463 2.049 1.066 2.943 1.518 1.882-.872 4.583-1.658 6.612-1.97.252 1.055.62 2.443.872 3.498l-.977 1.098c-.988.183-2.292.42-3.29.592.483 1.7 1.923 6.834 8.756 10.257 2.008-.808 4.604-2.121 6.444-3.272-.389-2.056-.211-5.016.599-6.877 4.604 5.435 29.696 98.391 29.643 98.972-.252 3.649-.252 3.649 3.153 9.235 29.928-3.477 5.856-43.632 17.555-62.875 10.806-17.802 13.897-25.088 14.622-28.091 5.277-22.526 5.277-22.526 11.079-22.042 1.272-3.207 1.272-3.207-.063-13.442 16.493 15.121 15.579 39.025 27.236 56.59.957-.13 2.239-.323 3.228-.452.441-2.11 1.03-4.919 1.45-7.028 10.617 10.848 5.119 26.519 11.038 38.788-1.115 3.358-.957 7.039-2.565 10.278.063.097 7.295 46.817 8.535 72.562 3.227-4.187 3.574-5.479 2.723-9.934l-6.328-84.917c2.207 4.079 5.687 7.275 7.474 11.634.073 1.916.073 2.077.073 2.282l.81.71c3.237 18.426 3.237 18.426 2.985 20.729 5.718-8.739 5.718-8.739-6.16-99.425-.767-6.059-.147-6.92 2.25-10.127.494.936 1.124 2.185 1.618 3.11 15.043-25.97-22.137-106.302-40.155-135.436-.084 1.033-.168 2.432-.252 3.487-6.013-4.94-6.013-4.94-14.38-23.086 1.503 1.356 1.503 1.356 6.044 7.921-.326-1.054-.757-2.464-1.083-3.519 2.345.969 6.287 2.594 21.087 31.018-.231-.743-39.776-85.595-106.726-136.889 1.409 1.463 3.322 3.357 4.825 4.692-20.551-10.354-34.521-29.533-53.516-41.985-.714-.592-.714-.613-.714-.613 2.543 1.56 2.543 1.56 8.651 5.489-4.941-3.907-4.941-3.907-27.257-17.371 1.818 1.001 4.236 2.346 6.034 3.412-5.635-3.412-9.02-5.317-15.789-8.998 5.571 2.971 9.061 4.94 16.209 9.181-29.012-16.058-35.036-19.395-61.231-30.2l-.305-.119c-.725-.366-1.787-.775-2.554-1.087M570.982 61.126l-8.357-1.733c-.368-.065-.715-.14-1.082-.215 5.245 1.054 10.616 2.206 10.648 2.228-.189-.044-.189-.044-2.922-.582 3.805.797 3.805.797 5.129 1.077-1.366-.259-2.743-.57-4.099-.861 11.468 2.518 20.361 4.628 31.85 8.029-9.302-2.53-21.759-5.888-31.167-7.943m-9.145-1.873-3.679-.689-.084-.021s-.084 0-.126-.022c.735.13 2.018.377 3.889.732m-25.943-4.187c-2.817-.333-6.549-.796-9.345-1.108h-.021c.809.097 1.629.194 2.428.258h-.095c.936.14 1.861.226 2.807.334-.82-.097-.893-.108-1.966-.215 1.682.236 3.396.398 5.078.613-.421-.065-.873-.13-1.293-.15 1.335.247 2.701.311 4.026.505-.4-.043-.81-.097-1.199-.14 0 0 .084 0 .126.022-.431-.022-.851-.108-1.272-.151 2.67.409 5.361.646 8.031 1.055a88 88 0 0 0-3.3-.452c1.534.194 2.67.355 4.814.667a760 760 0 0 0-8.819-1.238m-12.646-1.442h-.073.073m-12.393-1.055c-1.409-.096-3.28-.215-4.689-.28-.042-.02-.094-.02-.136-.02.757.074 1.524.096 2.27.139-5.497.021-5.497.021-10.511 1.12h-.021l.063-.022c4.772-.861 5.834-.861 5.939-.861-1.325.312-2.691.355-4.047.57 1.188-.043 2.333-.28 3.5-.387-.515.097-1.019.15-1.545.193h.231c-1.051.173-2.092.237-3.153.356.504-.043.998-.097 1.482-.14-.4.043-.831.097-1.209.14a3 3 0 0 1 .441-.043c-.567.075-1.093.118-1.66.193h-.042.063c.714-.075 1.429-.15 2.134-.193h-.116c.935-.097 1.86-.14 2.807-.216h-.431c.147-.021.294-.021.399-.043h-.305c.799-.118 1.619-.118 2.418-.172-.095-.021-.095-.021-.547 0 .946-.14 5.855-.334 6.675-.237-.82.216-1.64.022-2.46.065 5.246.097 5.246.097 5.919.172h-.579c.663.075 1.304.075 1.966.14-.21 0-.42-.022-.62-.022 1.64.259 3.332.194 4.972.313l-1.598-.119c.337 0 1.819.119 2.67.215-1.03-.096-2.386-.215-3.406-.312-4.488-.376-4.488-.376-6.874-.549"></path><path fill="#DFE3FF" d="M506.419 52.807c.757-.022 2.407-.022 2.67-.022-.147.043-.305.022-.473.022.21.043.4.021.61.021-.137.022-4.489.15-4.531.15.673-.117 1.325-.042 2.008-.15-.231-.021-.462 0-.704 0 .052 0 .073 0 .42-.021M511.275 52.903c.936 0 .936 0 2.618.097-.421.022-.873 0-1.293 0 3.91.258 7.82.334 11.72.743a28 28 0 0 0-1.682-.119c.221.022.431.043.642.043-.389 0-.726-.021-1.083-.021.095 0 .21.021.305.021-.231 0-.231 0-4.709-.29h.136c-.788-.097-3.311-.14-3.71-.14 2.596.355 5.213.29 7.82.506-3.09-.119-6.181-.366-9.282-.41 1.798.098 3.574.098 5.351.216 0 0-.095 0-.105.022.221 0 .462.021.694.021-5.404 0-10.817-.258-16.21-.183 3.133-.075 3.133-.075 5.54-.075-.536-.022-.536-.022-4.825.021.074 0 .074 0 2.943-.075-.378-.022-.378-.022-4.047.075 1.136-.043 2.292-.043 3.459-.118-1.63 0-5.056.14-7.789.29 2.733-.15 5.476-.215 8.209-.43-.136-.022-.136-.022-.515-.022.442-.075 1.167-.14 6.349-.118-.546-.022-1.082-.022-1.619-.043.148-.01.316-.032 1.083-.01"></path><path fill="#DFE3FF" d="M519.41 53.667c1.598.097 4.331.258 5.214.334-.578.021-1.167-.043-1.734-.076.494.043.998.097 1.503.14-7.884.119-15.747-.667-23.641-.592.326-.021.631-.021.957-.021h-1.1779999999999997c5.845-.14 8.778-.043 16.609.14h-.284c.21 0 .873 0 2.554.075M496.432 51.806h-.441c-.169-.021-.326-.021-.473-.021zM503.243 52.313h.641s-.252.042-.662.042v-.021l-.021-.022h.042M504.558 52.181l.767.022h-.063c.042.021.115.021.21.042-.095.022-1.409 0-1.409 0h-.01c.01-.021.063-.021.095-.021-.2-.075-.389-.021-.6-.021v-.022c-.126-.043-1.871-.161-1.892-.161zM498.815 52c.032-.022.202-.022.202-.022s-.074.043-.117.022h-.095zM499.375 51.978h.223s-.096.022-.149 0h-.095zM498.346 51.958s.317 0 .317.021c0 0-.095.021-.19.021-.116-.021-.169-.021-.127-.042"></path><path fill="#DFE3FF" d="M498.146 52.667c.021-.021.147-.15.21-.15.042 0 .095.042.095.042 0 .119-.042.194-.042.259-.095.075-.169.15-.232.236-.084-.269-.084-.312-.031-.387m-1.587-.646.22.119c.789.366.925 1 .999 1.388h.021c.42-.269.851-.581 1.272-.84.441-.172.631-.14.631-.14.115.044.935-.333 1.051-.451 0 0-1.682-.172-1.619.118 0 0 .032.043.084.043.252.043.21.194.042.215-.21.043-.641-.118-.652-.14-.042-.021-.042-.021-.315-.021-.147 0-.326-.118-.494-.172-.368-.043-.399-.043-.42 0-.263-.14-.726-.162-.82-.119M494.886 76.486c-.115.807-1.072 2.066-1.618 1.356-.168-.237-.253-.549-.484-.743-.189-.172-.441-.226-.536-.462-.042-.108-.042-.108.021-1.195.231-.043 1.451-.387 1.924-.549.042-.021.063-.021.063-.021.42.096.704 1.097.63 1.614M492.786 72.503c-.116.14-.421.172-.631.183-.936.13-1.041.258-1.64 1.248-.168.291-.494.808-.536 1.12-.042.387-.063.43-.368.624-.231.14-.536.172-.725.387-.347.43-.515.969-.81 1.421-.525.775-1.198 1.27-1.219 1.302-1.23.57-1.451-2.701-1.451-2.701s.021-.786.442-1.044c.042-.043.168-.097.41.043.441.28.956.172 1.209.065.515-.162.515-.162.893-1.044.2-.43.2-.43.557-.452.2-.334-.862-1.636-1.745-1.367a1.4 1.4 0 0 0-.588.355c-.368.312-.557.516-.768.441-.115-.064-.168-.215-.21-.301-.168-.474-.42-.84-.652-.958-.378-.194-.462.753-.746.43-.305-.312-.231-.817-.116-1.065 0-.022 2.071-2.056 2.649-2.056.999.151 1.314.7 1.325.721.042.076.126.216.473.216.378 0 .704-.237 1.072-.14.021 0 .042.021.063.021.074.043.147.15.168.29.19.883.915.668.946.668.179-.064.358-.215.526-.387.252-.237.389-.355.547-.216-.021.011 1.303 1.787.925 2.196M498.659 69.08c-.01.065-.042.355-.22.689-.295.473-.736.807-1.041 1.302-.168.237-.021.624-.326.786-.136.097-1.503-.29-1.902-.764-.169-.226-.19-.42-.232-.635-.052-.355-.168-.41-.557-.452h-.126c-.788-.043-.988-.043-1.345-.495-.253-.313-1.052-1.195-.568-1.744 0-.021.883-.915 1.514-.99.252.021.304.118.546.57.936 1.83 1.209 1.658 1.325 1.56.651-.408 2.344-.505 2.68-.333.063.054.284.14.252.506M380.886 83.684c-1.44.721-2.039.85-2.218.894-.337.075-.704-.119-.641-.259.105-.237 2.586-1.733 3.195-1.754.295.075 1.135.269-.126 1.033a.4.4 0 0 1-.21.086M434.875 94.45c-1.387 1.538-2.796 1.033-2.806.731-.032-.506 1.629-1.56 2.512-2.12.862.764.442 1.216.294 1.388M479.581 55.617c-.021.021-1.556.215-2.46.258.516-.14.516-.14 1.987-.474-5.918.065-11.647 1.722-17.512 1.991.189-.053.189-.053 1.145-.269-2.165.313-2.165.313-2.48.334.378-.14.788-.237 1.166-.387-.325-.043-.325-.043-1.093.096-4.247.83-14.296 2.433-16.262 2.336 0 0 .021 0 3.511-1.001-3.689.388-7.127 2.196-10.9 2.196.389-.216.389-.216 2.722-.84-1.019.075-2.071.29-3.122.388 1.787-.474 3.574-.765 5.351-1.195-1.472.215-2.923.506-4.363.742.946-.333 1.977-.452 2.965-.688-.736.043-1.451.194-2.197.258.578-.237 1.209-.334 1.818-.527l-.021-.043h-.031c.578-.216.757-.28 3.153-.646-.084.021-.189.097-.273.118 1.64-.075 3.238-.43 4.877-.646-.494.14-.956.216-1.419.313 2.775-.022 5.498-.764 8.263-1.066-2.691.657-5.561.301-8.126 1.518.715 0 .83 0 7.558-1.055-1.377.118-2.723.334-4.089.506.073-.022 8.567-1.313 9.786-1.356-.83.236-1.661.312-2.502.527 4.773-.42 9.472-1.28 14.244-1.711-1.598.484-3.248.484-4.867.764 2.292-.237 4.594-.614 6.885-.786-.021.065-.073.172-.094.259-.537.096-1.052.172-1.598.258.084 0 7.053-.646 7.905-.807-.631-.108-1.283-.043-1.903-.108.263-.097.263-.097 2.691-.355h-.589c.862-.194 9.366-.667 9.44-.667-.221.021-.526.043-.736.075.641-.022 1.272-.075 1.871-.097-1.492.119-3.017.194-4.53.334 4.394-.312 4.394-.312 4.719-.312-1.324.15-2.67.193-3.994.312.999-.022 2.008-.172 3.017-.172-1.188.14-2.386.215-3.585.333.925-.043 1.808-.14 2.702-.194-.831.097-1.661.173-2.491.259.998-.097.998-.097 3.332-.237-2.039.28-4.11.355-6.129.689.19 0 .442 0 .631-.022-.935.258-4.31.775-4.31.775h-.063z"></path><path fill="#DFE3FF" d="M473.695 55.014c-1.187.119-1.345.14-1.513.14 1.377-.269 4.677-.56 6.075-.667-.967.054-2.281.15-3.248.258-.063 0-.126 0-.178-.021.452-.183 3.773-.366 3.815-.366l-.977.13c2.954.01 5.918-.464 8.882-.593-.515.054-1.03.054-1.534.097 1.061 0 2.112-.118 3.153-.15-10.333.764-10.333.764-14.475 1.172"></path><path fill="#DFE3FF" d="M468.449 55.519s-4.53.452-4.982.452c.021-.011.063-.011.073-.011-.073-.032-.073-.032-.21-.032.379-.097.767-.119 1.135-.194-.126 0-.283.021-.42.021 1.083-.333 10.806-1.205 11.962-1.227-.462.043-1.398.151-2.859.29h.231c-1.503.56-3.09.345-4.614.56 1.019 0 2.06-.269 3.111-.269-.2.054-.336.076-3.427.41"></path><path fill="#DFE3FF" d="M461.039 56.09c-.221.021-2.029.215-2.039.215-.169.022-.316-.065-.463-.065.641-.204 6.223-.904 7.337-.904h.042c-.021.033-.021.065-.021.065-1.051.28-2.155.28-3.227.43.347-.043.82-.096 1.188-.118-.925.118-1.861.258-2.817.377M461.103 55.658c-1.324.14-3.669.312-3.9.312.273-.096 7.18-.785 8.767-.893-.652.13-4.846.581-4.867.581M453.921 56.477c-.241.022-1.787.215-2.112.237v-.022c.304-.15 3.416-.538 3.626-.495-.042.022-.042.022-1.156.237-.095.022-.242.022-.358.043M460.472 55.069c-.253.01-1.167.096-1.388.096.147-.086 2.344-.236 2.47-.236 0 0-.031 0-.851.118a.43.43 0 0 0-.231.022M453.471 55.66c-.21.02-1.157.117-1.377.117.094-.096 2.302-.312 2.46-.29 0 0-.022 0-.841.14-.063.01-.158.01-.242.032M371.932 74.106c-.441.14-1.145.333-1.324.387-.116.022-.095-.075-.095-.075.105-.258 1.913-.829 2.124-.786.042.022.042.022-.494.41-.042.02-.137.042-.211.064M447.94 57.295c-.778.118-.914.15-1.083.118.137-.075 1.367-.236 1.535-.215l.084.022c-.199.021-.389.054-.536.075M456.518 55.918c-.746.096-.935.118-1.082.096.073-.043 1.576-.172 1.576-.172l.074.033a5 5 0 0 1-.568.043M443.559 57.984c-.536.097-.998.172-1.082.118.084-.064 1.429-.258 1.534-.237l.084.022a3 3 0 0 1-.536.097M452.955 56.747c-.725.096-.904.107-1.072.096.136-.043 1.398-.226 1.545-.204l.074.032c-.19.022-.358.054-.547.076M435.6 59.588c-.557.097-1.03.172-1.135.119.105-.065 1.408-.28 1.556-.259l.115.022c-.178.043-.368.064-.536.118M374.672 74.065c-.305.097-1.157.355-1.209.215.042-.118 1.251-.527 1.535-.473l.189.064c-.116.054-.242.097-.515.194M359.8 78.218c-.284.108-.683.237-.757.258-.031 0-.494.065-.441 0 .042-.129 1.23-.613 1.524-.538l.21.065c-.115.053-.263.107-.536.215M365.972 76.334c-.252.097-.673.215-.746.237 0 0-.526.075-.463 0 .063-.108 1.261-.57 1.535-.495l.21.064c-.116.043-.252.086-.536.194M323.944 89.616c-.442.194-1.125.452-1.304.506-.157.022-.094-.118-.094-.118.147-.345 1.892-1.087 2.091-1.044.064.043.064.043-.483.56-.074.021-.147.075-.21.096M312.035 94.89c-.284.129-.673.312-.757.333 0 0-.484.097-.421-.021.084-.151 1.199-.754 1.503-.678l.19.129c-.137.053-.253.097-.515.236M318.068 92.479c-.305.14-.673.312-.747.312-.042.022-.504.108-.452 0 .084-.14 1.251-.721 1.525-.646l.189.097c-.116.043-.231.119-.515.237M302.095 107.126c-.494.29-1.209.57-1.303.592-.169.043-.242-.151-.211-.237.116-.409 1.493-1.195 1.84-1.12.116.044.116.044-.137.668a1 1 0 0 0-.189.097M299.935 105.619c-.494.259-1.188.571-1.282.592-.2.043-.2-.204-.2-.204.084-.398 1.577-1.238 1.903-1.152.094.043.094.043-.242.646-.042.032-.137.086-.179.118M290.809 113.422c-.253.14-.631.334-.715.355 0 0-.652.14-.578-.043.073-.237 1.04-.807 1.419-.743l.357.119c-.105.075-.2.14-.483.312M287.76 111.936c-.284.172-.652.355-.704.387-.063 0-.578.119-.547-.043.032-.193 1.093-.85 1.44-.742l.305.118c-.105.065-.21.14-.494.28M294.742 109.267a6 6 0 0 1-.725.376c-.074 0-.578.13-.557-.021.042-.215 1.072-.829 1.45-.764l.337.118c-.137.097-.253.151-.505.291M187.063 189.512c-.252.237-.557.527-.631.549 0 0-.599.193-.578-.076 0-.333.82-1.194 1.209-1.076l.368.172c-.063.119-.147.215-.368.431M180.691 185.929c-.221.237-.526.506-.61.528-.021.021-.431.172-.421 0 0-.258.894-1.238 1.199-1.119l.231.193c-.084.086-.189.205-.399.398M180.197 188.394c-.21.215-.536.495-.578.527-.042.021-.462.172-.462-.022-.021-.236.841-1.248 1.187-1.13l.253.194c-.095.108-.189.215-.4.431M99.223 284.083c-.399.711-.767 1.443-1.166 2.153.073-.118.536-1.001 1.387-2.615 0 0 .01-.022.01-.043 0 .01-.094.193-.23.505M102.576 278.12c-.042.022-.431.743-.494.829.021-.118.431-.882 1.472-2.723l.021-.043h.021c-.042.129-.063.226-1.02 1.937M167.622 200.125c-.252.237-.547.527-.578.549 0 0-.452.172-.452-.022 0-.258.851-1.291 1.177-1.162l.231.194c-.115.107-.168.194-.378.441M164.355 195.476c-.179.193-.484.495-.536.548 0 0-.253.119-.253.022 0 0 0-.172.558-.786.304-.312.483-.452.567-.409l.063.194c-.105.097-.178.215-.399.431M154.242 204.461c-.536.625-.578.668-.641.646-.042-.097.935-1.302 1.041-1.27h.042l-.042.183c-.127.151-.242.291-.4.441M148.63 210.276c-.494.635-.525.678-.568.678 0-.097.936-1.249 1.052-1.292l-.095.151a2 2 0 0 1-.389.463M360.19 79.733a9 9 0 0 1-.757.258s-.494.076-.473-.021c.042-.097 1.177-.581 1.492-.527l.242.075c-.105.054-.231.13-.504.215M365.807 76.766c-.358.107-1.157.409-1.209.236.042-.129 1.24-.58 1.534-.527l.19.086c-.116.054-.232.097-.515.205M443.674 56.585c-.305.054-.609.108-.914.13.21-.044 1.682-.216 1.682-.216-.221.032-.431.032-.61.086zM438.577 57.06c-.305.042-.61.064-.915.118.21-.054 1.682-.237 1.682-.237a5 5 0 0 1-.62.097c-.032-.011-.105.021-.147.021M427.085 59.491c-.305.054-.599.097-.894.15.19-.042 1.63-.311 1.63-.311-.189.064-.4.096-.599.14-.042 0-.106 0-.137.021M426.445 59.296c-.304.043-.578.097-.883.14.19-.043 1.64-.28 1.64-.28-.199.043-.41.065-.62.119-.042 0-.084 0-.137.021M460.683 55.283a85 85 0 0 0-1.367.118c.127-.097 2.397-.258 2.397-.258l-.799.118a.44.44 0 0 0-.231.022"></path><path fill="#DFE3FF" d="M467.05 54.883c-2.375.215-4.72.398-7.064.613 2.26-.57 12.982-1.323 18.238-1.485-1.85.258-3.7.237-5.571.41h.063c-1.85.258-3.774.333-5.666.462M428.58 61.739c-2.25.484-4.489.85-6.749 1.345.305-.172.641-.237.946-.409-.673-.118-1.366.172-2.039.097a1 1 0 0 0 .094-.194c.41-.118.789-.215 1.178-.344-1.136-.032-2.218.42-3.301.581.095-.043.095-.043 4.268-1.184-.662-.01-1.272.15-1.903.205 1.135-.657 2.449-.657 3.637-1.034-.725 0-1.398.216-2.113.259.253-.097 4.079-1.087 4.983-1.26.189-.021 19.941-3.207 23.525-3.444-.567.13-1.188.205-1.787.323.168 0 .168 0 1.02-.107-6.612 1.517-13.455 1.776-19.93 3.907.557-.022 1.093-.13 1.66-.108-.168.441-.262.656-3.489 1.367M475.43 54.002c-.116 0-3.028.14-3.301.14.631-.14 7.61-.43 8.704-.43-.042.01-5.372.29-5.403.29M470.172 54.173c-2.702.14-5.414.377-8.147.452 1.23-.183 7.106-.592 8.494-.55h-.053c.095.044.221.022.316.044-.042.022-.063.022-.61.054M446.933 56.726c-2.387.258-4.773.55-7.127.807-1.598.194-3.175.646-4.773.668.231-.183 1.861-.883 12.793-1.895-1.661.313-3.332.388-5.014.722 2.47-.173 4.867-.754 7.327-.872-.011 0-2.933.516-3.206.57"></path><path fill="#DFE3FF" d="M434.422 58.157s-2.502.29-2.86.237c.211-.237 4.846-.786 5.288-.721-.126.118-2.397.484-2.428.484M431.29 59.137c-1.797.312-3.815.473-3.815.473.799-.506 8.146-1.474 9.408-1.474-.116.043-.284.086-5.593 1M419.792 61.31l-6.486 1.087-.032-.064c-.168-.087-.21-.087-2.344.333-2.281.43-3.364.366-3.364.366s1.409-.689 3.848-1.195l9.492-1.539c-.095.043-.116.065-.631.205.189-.022.379-.022.599-.022-.042.022-.042.022-.199.183.199.065.42.022.578.215-.074.076-.168.216-1.461.431M419.201 60.427c-2.081.312-4.194.334-6.254.743-10.249 2.066-10.249 2.066-10.375 2.044 0-.043.01-.14.042-.215-.095-.043-.095-.043-.337-.075.4-.646 12.52-2.841 15.432-3.121-.978.355-2.029.452-3.007.689 2.881-.259 5.687-1.077 8.588-1.195-1.818.387-2.207.506-2.386.549.137.021.305.021.473.064-.357.205-2.155.517-2.155.517zM377.714 77.315c-2.408.84-3.175.99-3.532 1.022.01-.172.094-.43.105-.592-.599-.118-.599-.118-10.796 3.928-4.078 1.636-4.078 1.636-4.604 2.218.084.15.179.366.263.527-6.528 3.358-18.438 9.094-25.123 9.912 3.815-2.583 8.84-2.895 11.888-6.877-12.067 1.937-21.202 10.881-32.628 14.282 1.65-2.066 4.205-2.863 6.16-4.51-.095-.14-.242-.333-.347-.473-6.612-.14-8.441 9.32-15.579 8.126.337-1.034.337-1.034 2.807-2.519 6.759-4.176 14.149-7.178 20.656-11.785-1.472.097-2.67 1.023-4.047 1.41.515-.355.515-.355 1.64-1-.6-.12-.6-.12-2.103.354 2.565-2.098 9.976-4.455 12.762-5.338-.705.743-1.703 1.098-2.366 1.905.126.15.295.366.4.517 1.787 0 14.212-3.853 25.186-7.265l.378-.172c.19-.097.19-.097 21.97-8.61-.862.043-1.713.344-2.565.236.431-.344.431-.344 3.07-1.485-.789-.107-.789-.107-3.038.474 5.056-2.615 5.056-2.615 11.069-4.09-.127.108-.347.237-.484.334 27.709-5.532 27.709-5.532 28.403-5.435-.336.236-1.419.979-6.223 1.334-2.523.194-19.699 3.692-23.504 5.037 9.376-.646 18.301-3.842 27.509-5.295-.536.667-.631.785-6.549 1.84-.105.022-10.995 2.325-11.805 2.605 1.504.527 3.028-.054 4.52.064-.042.022-5.497 2.357-8.535 2.626l-.326-.021-.032-.022c-1.061.27-3.069.829-4.393 1.26.893.096 1.745 0 2.649.021-2.155 2.422-7.548-.893-8 3.229-2.985 1.528-4.247 2.012-4.856 2.228"></path><path fill="#DFE3FF" d="M410.804 65.862c-.042.022-7.021 1.572-7.095 1.593.105-.28.515-.215.536-.56-.021-.02-.073-.042-.073-.042l-.022-.065c1.041-.624 9.02-2.25 9.419-2.25-.462.377-1.093.334-1.629.55-.347.15-.421.215-.41.333.031.172.031.194-.126.301.01-.021-.169.054-.6.14"></path><path fill="#DFE3FF" d="M334.728 77.463c-.61.216-1.24.377-1.85.614l4.173-1.54c-.042.022-.115.044-.168.065.116-.043 1.125-.387 1.261-.452-.136.076-2.974 1.163-3.416 1.313M373.979 65.4c-.032 0-5.624 1.345-5.624 1.345.095-.022.095-.022.421-.118-.988.193-1.829.871-2.881.688 7.653-2.227 17.03-4.326 17.114-4.348-.568.388-3.396 1.077-9.03 2.433m-137.841 87.639c.841-.645.841-.645 3.942-4.014-1.261-.237-2.985-.312-4.289-.14a31 31 0 0 0 .21-1.658c10.186-1.786 14.675-12.549 23.873-15.885 10.207-3.692 17.901-11.57 26.91-17.242-1.451.216-1.451.216-14.044 5.941 0-.495.042-1.141.074-1.614 11.069-9.471 24.702-14.627 36.633-22.655-5.403 1.291-10.186 4.208-15.431 5.919h-.126c-54.083 27.531-54.083 27.531-76.526 41.92 17.965-14.594 54.787-41.393 99.925-56.977-.41.29-.967.624-1.367.894 5.509-1.723 10.481-4.65 15.737-6.92-1.956 1.118-1.956 1.118-8.042 4.143 3.311.172 3.311.172 18.154-5.554-.452.355-1.041.807-1.472 1.141 1.63.15 1.63.15 6.738-1.378h.084c-.42.259-.998.625-1.419.904 3.438-.333 13.939-1.291 28.34-7.307-6.885-.162-13.013 3.056-19.594 4.348 5.13-2.788 10.985-3.1 16.346-5.155-.967.118-2.25.312-3.217.473 1.924-.786 1.924-.786 33.596-8.384-14.664 2.206-14.664 2.206-42.32 8.933 3.227-1.431 6.769-1.83 10.133-2.83-1.009-.022-2.365.118-3.343.365.557-.312.557-.312 10.155-3.562-2.239.021-2.239.021-8.872 1.614 19.352-5.252 32.124-8.728 53.746-11.774-1.019.13-2.407.226-3.437.27 1.808-.27 3.637-.496 5.424-.754-1.125.043-2.638.15-3.795.258 7.506-1.26 21.539-2.992 45.895-3.95-1.714-.172-1.714-.172-4.846-.118a39 39 0 0 0 1.598-.119c-6.949.043-15.285.786-18.018 1.023 1.714-.119 3.438-.259 5.141-.41l.262-.02c-.494.042-1.135.118-1.639.171a46 46 0 0 1 1.661-.118c-1.262.118-2.944.312-4.205.452a91 91 0 0 0 1.598-.172c-42.994 6.651-70.503 11.57-81.782 14.648-35.982 11.623-39.756 12.829-65.163 24.474-37.695 19.609-39.177 20.373-59.223 33.977-35.214 26.078-35.908 26.562-52.906 42.491-11.1 11.279-25.764 26.454-36.202 38.379l-.021.022c.084-.043.084-.043 15.925-15.67-.147 1.442-.147 1.442-4.121 6.952 1.609-.85 3.017-2.012 4.563-2.97 1.934.581 1.934.581 24.439-23.42 1.998.259 2.881.388 7.716-4.272-1.924-.592-2.901-.883-15.873 6.651 7.474-5.554 15.694-9.902 23.505-14.874 1.429 1.098 1.429 1.098 3.006 4.133 6.58-.969 10.585-1.539 25.964-10.58"></path><path fill="#DFE3FF" d="M201.377 169.354c-.767.667-.999.721-1.072.721-.147-.194 2.533-3.982 2.649-4.165.315-.388 1.944-2.303 2.48-2.465.116.216-.262.452-.021.635.169.129.558.033.768-.043-.778 1.012-4.236 4.811-4.804 5.317M252.905 121.418c-.756.452-.83.484-.83.484-.179.022-.557-.021-.484-.269.116-.549 4.068-2.271 5.067-2.68-1.051.71-2.964 1.959-3.753 2.465M229.903 134.699c-.399.291-.883.549-.977.527.063-.452 3.816-2.733 3.858-2.733-.915.71-2.124 1.7-2.881 2.206M306.505 95.837c-2.817 1.356-4.362 2.002-6.706 2.4.368-.344 6.412-2.84 6.496-2.873l1.608-.29c-.084.096-.147.171-1.398.763M312.799 92.36c-.042.02-4.814 1.678-5.151 1.398 0-.269.768-.7 1.42-1.011 2.533-1.238 2.617-1.076 2.659-1.001.042.043-.042.14.042.215 0 0 .042.043.189.022 1.167-.119 1.167-.119 1.398-.043.053.032.19.129-.557.42M317.458 91.261c-.263.097-.589.237-.852.312.105-.075.316-.29 2.712-1.603 2.271-1.227 2.46-1.324 2.555-1.54-2.113-.096-4.047.85-6.076 1.26.662-.495 5.708-2.766 5.708-2.766 1.019-.355 2.06-.452 3.038-.786 1.093-.376 2.113-1 3.216-1.334l8.357-2.314c.147.086.179.107.305.226zM358.915 79.715l-5.992 2.001s-.851.194-1.093.043c.126-.71 7.789-3.272 8.62-3.218 0 0 0 .022.01.022-.136.441-.21.656-1.545 1.151M381 67.271c-2.008.495-4.047.786-6.013 1.4-4.814 1.506-5.876 1.721-6.096 1.743.063-.097 3.195-1.593 6.233-2.433 3.154-.85 7.285-1.366 7.537-1.302v.076c-.273.118-.389.193-1.661.516M422.944 58.922c-5.592.882-5.613.882-5.823.882.021-.022.021-.022.168-.118-.252-.076-2.323.29-2.943.42 5.014-.97 7.505-1.346 12.099-2.013-2.965.732-2.965.732-3.501.828"></path><path fill="#DFE3FF" d="M381.726 66.036q-.017 0 0 0m35.592-6.662c6.129-1.023 6.528-1.098 6.781-1.152-4.489.334-8.83 1.55-13.34 1.809 1.43-.356 1.43-.356 12.877-2.358-.189 0-.42.022-.61.044 1.577-.356 3.154-.528 4.752-.872-.021 0-.063-.011-.063-.011-4.983.237-9.839 1.291-14.78 1.883.41-.118.41-.118 1.104-.29-.063 0-.063 0-14.338 2.755 2.68-.883 5.119-1.4 6.433-1.636-9.25 1.13-20.456 4.058-20.992 4.316.031.064.137.172.2.237.546-.022.546-.022.82 0-2.513 2.206-5.887 1.507-8.715 2.637 3.175.118 5.824-2.422 9.103-1.776.032.075.085.172.137.237 5.298-.119 10.123-2.53 15.274-3.39 5.108-.85 10.238-1.572 15.357-2.433M470.027 53.959c-7.369.333-7.369.333-7.895.28.126-.043.127-.043 3.28-.259-1.924.076-3.837.237-5.75.216 3.501-.355 7.295-.528 8.946-.506-.084.032-.084.032-.505.054 1.735.118 3.437-.022 5.172.043-.147 0-.168 0-3.248.172M455.926 55.099c-3.07.301-6.108.495-9.167.828-7.936.915-7.936.915-8.798.915.095-.043.095-.043 2.828-.495-1.22-.13-2.408.108-3.627.108.652-.237 4.888-.754 5.098-.754-.063.043-.063.043-.956.259 1.125.226 6.475-.57 6.843-.721-.105-.043-.105-.043-.4-.043.862-.14 4.079-.388 4.584-.388-.169.043-.169.043-.936.15 2.691-.107 5.319-.656 8.052-.516-.326.043-.326.043-11.195 1.012-.01.021-.063.021-.116.043.358.075 6.097-.355 6.16-.355 2.092-.194 3.322-.302 4.026-.302-.357.108-.357.108-2.396.259"></path><path fill="#DFE3FF" d="M447.817 55.96c-1.03.086-2.06.323-3.09.312.115-.043.168-.064 5.855-.656-.936.097-1.85.236-2.765.344M439.626 55.756c-2.859.29-5.718.387-8.609.57-4.131.29-8.231 1.109-12.372 1.184 2.606-1.108 26.836-3.175 30.326-3.003-.074.022-.147.044-.189.044.956.075 1.934-.108 2.922-.108-.378.054-11.994 1.313-12.078 1.313M216.691 848.894c-.525-.409-1.019-.786-1.524-1.195.484.377 1.146.905 1.629 1.292zM96.016 633.858c-1.903-8.363-6.885-30.534-23.347-46.333-.43.99-1.103 2.26-1.713 3.132-7.842-10.892-7.842-10.892-8.64-14.174-3.764-2.271-2.692-7.244-5.362-10.128-.767 2.486-.347 5.069-.567 7.609-1.388-3.681-.663-7.663-1.451-11.43-.4.323-.946.721-1.346 1.001-1.976-2.497-1.892-8.481-1.64-11.828.19-2.734-4.982-49.206-5.056-49.519.2 6.512.453 15.219.663 21.752 4.73 47.366 4.73 47.366 9.86 70.624 11.805 44.987 11.805 44.987 20.33 66.792 18.322 41.985 18.322 41.985 29.927 61.917 24.261 38.283 24.261 38.283 38.704 56.203 29.023 33.234 29.612 33.88 46.672 49.443l14.202 12.323.021.032c-28.14-26.616-28.14-26.616-37.674-37.959.294.441.662 1.033.935 1.474 1.188 1.636 1.493 2.088 3.711 4.445-6.654-6.899-16.64-19.405-17.05-19.975 3.805 2.604 6.107 6.629 9.197 9.901-34.804-44.557-34.804-44.557-37.012-52.941.694-.829 1.472-2.109 1.914-3.11L99.706 673.54c-4.195-12.937-.768-26.616-3.69-39.682"></path><path fill="#DFE3FF" d="M175.18 810.225a111 111 0 0 0-1.556-1.593c.074.096.147.161.189.215.021.021.042.054.063.064a35 35 0 0 0 1.304 1.314m-4.079-4.801a5.6 5.6 0 0 0-.872-.871c.031 0 .031.021.031.021.274.431.862.958.957.969 0 0-.011-.043-.116-.119m-3.427-4.983-1.292-1.259-1.651-1.593c-7.179-8.782-7.179-8.782-8.104-9.18 0 0-.074-.022-.106-.022.263.42 11.7 14.627 17.061 20.202-1.43-1.55-2.712-3.208-4.11-4.779.095.065.095.065.757.743-.021-.043-.032-.097-.074-.151-1.839-2.917-1.839-2.917-2.481-3.961M482.83 52.184c-13.57-.764-23.746-.162-27.488.118.399 0 .809-.021 1.188-.043-1.419.215-2.88.29-4.3.527 5.782.151 11.49-.979 17.261-1.097-2.386 0-5.456.183-6.665.312 1.556.021 3.122-.215 4.689-.237-3.333.312-7.905.721-8.62 1.055 9.913-.625 11.426-.721 19.752-1.023.304-.075.998-.215 3.132-.215-1.366.118-1.366.118-1.64.172l5.372-.097c1.797-.043 2.302-.021 2.449-.021l4.362.075c.137 0 .274 0 .442.022a6.7 6.7 0 0 1 1.377.215 8.4 8.4 0 0 1 1.366.409c.368.172.768.334 1.167.527.274.14.547.312.799.474.095.043.21.118.305.194-1.882-.259-7.59-.937-14.948-1.367M443.189 54.023c-.21.043-.452.119-.683.172l3.006-.29c1.262-.183 3.122-.57 3.122-.57-.662.021-5.434.688-5.445.688"></path><path stroke="#EFF1FF" stroke-width="1.529" d="M734.941 493.409c0 142.784-113.048 258.502-252.461 258.502-139.412 0-252.46-115.718-252.46-258.502s113.048-258.502 252.46-258.502c139.413 0 252.461 115.718 252.461 258.502Z"></path><path stroke="#EFF1FF" stroke-width="1.529" d="M963.235 493.5c0 272.147-215.473 492.735-481.235 492.735S.765 765.647.765 493.5 216.238.765 482 .765 963.235 221.353 963.235 493.5Z"></path><path stroke="#EFF1FF" stroke-width="1.529" d="M850.856 492.515c0 208.451-165.432 377.407-369.468 377.407S111.921 700.966 111.921 492.515s165.431-377.407 369.467-377.407 369.468 168.956 369.468 377.407Z"></path></svg>