<svg width="13" height="16" viewBox="0 0 13 16" fill="none" xmlns="http://www.w3.org/2000/svg"><style>*, ::after, ::before { box-sizing: inherit; }
* { -webkit-font-smoothing: antialiased; }</style><path fill-rule="evenodd" clip-rule="evenodd" d="M2.79112 4.03316V3.38099C2.79112 1.58006 4.35535 0.120117 6.28491 0.120117C8.21448 0.120117 9.7787 1.58006 9.7787 3.38099V4.03316H10.8765C11.4667 4.03316 11.6807 4.09051 11.8964 4.19821C12.1122 4.3059 12.2815 4.46394 12.3969 4.66532C12.5123 4.86669 12.5737 5.06643 12.5737 5.61725V13.536C12.5737 14.0868 12.5123 14.2866 12.3969 14.488C12.2815 14.6893 12.1122 14.8474 11.8964 14.9551C11.6807 15.0628 11.4667 15.1201 10.8765 15.1201H1.69334C1.10317 15.1201 0.889159 15.0628 0.673402 14.9551C0.457646 14.8474 0.288318 14.6893 0.172931 14.488C0.0575425 14.2866 -0.00390625 14.0868 -0.00390625 13.536V5.61725C-0.00390625 5.06643 0.0575425 4.86669 0.172931 4.66532C0.288318 4.46394 0.457646 4.3059 0.673402 4.19821C0.889159 4.09051 1.10317 4.03316 1.69334 4.03316H2.79112ZM8.37956 4.03326V3.38108C8.37956 2.30052 7.44103 1.42456 6.28329 1.42456C5.12555 1.42456 4.18701 2.30052 4.18701 3.38108V4.03326H8.37956Z" fill="#48D38A"></path></svg>