<svg width="37" height="37" viewBox="0 0 37 37" fill="none" xmlns="http://www.w3.org/2000/svg">
<circle cx="18.5" cy="18.5" r="18.5" fill="#DFE3FF"/>
<path d="M28.7025 12.1137C28.0067 12.422 27.2592 12.6303 26.4733 12.7245C27.2842 12.2393 27.8908 11.4757 28.18 10.5762C27.4182 11.0287 26.5844 11.3472 25.715 11.5178C25.1303 10.8935 24.3559 10.4798 23.5119 10.3407C22.668 10.2017 21.8017 10.3452 21.0477 10.7489C20.2936 11.1526 19.694 11.794 19.3418 12.5734C18.9896 13.3529 18.9046 14.2268 19.1 15.0595C17.5564 14.982 16.0463 14.5808 14.6678 13.8819C13.2893 13.183 12.0732 12.2021 11.0983 11.0028C10.765 11.5778 10.5733 12.2445 10.5733 12.9545C10.573 13.5937 10.7303 14.223 11.0316 14.7868C11.3328 15.3505 11.7685 15.8312 12.3 16.1862C11.6836 16.1665 11.0807 16 10.5417 15.7003V15.7503C10.5416 16.6468 10.8517 17.5156 11.4193 18.2095C11.9869 18.9033 12.7771 19.3794 13.6558 19.557C13.084 19.7118 12.4844 19.7346 11.9025 19.6237C12.1504 20.395 12.6333 21.0695 13.2836 21.5528C13.9339 22.036 14.7191 22.3038 15.5292 22.3187C14.154 23.3982 12.4557 23.9837 10.7075 23.9812C10.3978 23.9812 10.0884 23.9632 9.78082 23.927C11.5554 25.068 13.6211 25.6735 15.7308 25.6712C22.8725 25.6712 26.7767 19.7562 26.7767 14.6262C26.7767 14.4595 26.7725 14.2912 26.765 14.1245C27.5244 13.5753 28.1799 12.8952 28.7008 12.1162L28.7025 12.1137V12.1137Z" fill="#40196D"/>
</svg>
