<svg width="362" height="436" viewBox="0 0 362 436" fill="none" xmlns="http://www.w3.org/2000/svg">
<circle cx="179.156" cy="256.611" r="178.5" fill="#FEE8F0"/>
<mask id="mask0_89_5278" style="mask-type:alpha" maskUnits="userSpaceOnUse" x="3" y="78" width="358" height="358">
<circle cx="182.156" cy="256.611" r="178.5" fill="#F4E6FF"/>
</mask>
<g mask="url(#mask0_89_5278)">
<path d="M150.527 289.884C149.82 283.374 147.128 275.489 142.014 265.926C106.385 279.302 70.3648 298.252 34.1952 319.368C23.1607 325.794 25.3395 338.423 33.6593 347.955L113.756 411.061L117.529 419.825C105.862 529.471 102.541 597.51 114.968 587.038C164.329 606.91 211.828 601.687 258.312 582.72L255.751 443.018L262.357 467.156L259.928 553.662L287.031 564.112C299.014 530.938 303.46 497.769 298.9 464.595C303.477 422.746 293.291 387.824 262.625 362.517C255.948 358.076 247.505 354.957 234.714 355.102C205.559 350.609 172.438 350.692 136.273 354.29L95.9568 332.849L150.527 289.884Z" fill="#1DC8EF"/>
<path d="M281.07 596.812C285.375 589.006 286.772 577.317 287.031 564.113L264.07 555.257C252.469 560.067 245.392 564.108 241.522 578.986L234.749 582.913C236.545 587.666 241.017 586.867 246.46 584.741C247.734 594.809 246.284 606.327 244.325 615.318C242.748 620.7 248.423 621.297 250.325 616.5L254.705 609.621C260.082 613.28 263.13 611.782 264.821 607.262C268.265 607.75 271.081 606.731 272.908 603.353C276.699 603.489 279.436 601.35 281.07 596.812ZM165.137 304.934C162.888 317.413 167.026 326.427 175.386 333.152L172.148 333.42L166.148 358.569C165.933 380.348 205.669 387.328 209.904 363.326L209.029 337.769C218.346 334.237 224.588 327.148 226.895 315.52L229.996 296.442C233.246 300.295 241.008 299.935 242.471 292.933L244.022 279.583C244.347 274.044 238.975 271.874 234.582 273.179L236.897 260.804C239.098 246.256 233.541 236.245 221.298 231.175L192.711 230.367L169.113 281.406L165.137 304.934Z" fill="#A476D4"/>
<path d="M209.359 347.351C199.66 347.829 191.002 346.349 185.129 339.593C193.664 342.686 201.624 342.071 209.034 337.924L209.359 347.351Z" fill="#491A78"/>
<path d="M201.009 319.262C196.528 316.872 191.542 315.212 184.993 315.792C176.445 316.793 180.082 308.399 184.778 305.249C191.064 301.028 200.411 303.523 204.747 308.074C208.99 312.528 208.468 323.158 201.009 319.262Z" fill="white"/>
<path d="M203.939 263.677C203.543 263.484 203.152 263.695 203.069 264.143L198.298 289.748C198.215 290.196 198.47 290.719 198.865 290.912C199.26 291.105 199.651 290.894 199.735 290.446L204.505 264.841C204.589 264.393 204.334 263.871 203.939 263.677ZM196.212 263.906C196.95 264.033 197.451 264.745 197.323 265.483L196.901 267.907C196.77 268.65 196.062 269.146 195.32 269.019C194.582 268.891 194.081 268.18 194.209 267.442L194.63 265.017C194.762 264.275 195.469 263.774 196.212 263.906ZM211.599 266.836C212.342 266.967 212.838 267.675 212.711 268.417L212.289 270.842C212.162 271.58 211.45 272.08 210.712 271.953H210.708C209.97 271.821 209.469 271.114 209.601 270.372L210.022 267.947C210.15 267.209 210.862 266.708 211.599 266.836ZM233.301 240.474L233.51 240.901L218.43 237.861L218.632 236.407L219.924 236.631L233.301 240.474ZM221.299 231.334L233.677 241.165C231.529 229.396 226.008 217.685 215.096 206.054C209.144 195.77 201.321 193.53 197.393 199.631C195.636 205.698 196.893 209.497 198.913 212.726C189.179 207.459 180.648 204.898 174.692 208.127C166.904 212.625 174.74 219.302 179.392 222.083C170.98 223.778 162.757 226.436 155.021 231.641C148.472 237.923 156.537 241.222 158.43 241.538L173.778 231.588L188.568 232.713L198.606 235.234C198.606 235.234 201.368 234.212 199.603 238.489C197.838 242.767 208.242 247.182 213.023 239.882C217.803 232.582 221.299 231.334 221.299 231.334Z" fill="#3D0077"/>
<path d="M221.299 231.175L233.677 241.006C231.529 229.238 226.008 217.527 215.096 205.895C209.144 195.612 201.321 193.372 197.393 199.473C195.636 205.54 196.893 209.339 198.913 212.568C189.179 207.301 180.648 204.74 174.692 207.969C166.904 212.467 174.74 219.144 179.392 221.924C170.98 223.62 162.757 226.278 155.021 231.483C148.472 237.765 156.537 241.063 158.43 241.38L173.778 231.43L188.568 232.555L198.606 235.076L199.603 238.331L213.023 239.724L215.096 232.555L221.299 231.175Z" stroke="#3D0077" stroke-width="0.439272"/>
<path d="M223.675 241.596L234.679 243.383C235.008 243.436 235.232 243.748 235.179 244.073C235.127 244.403 234.815 244.627 234.49 244.569L223.482 242.782C223.152 242.729 222.928 242.417 222.985 242.092C223.038 241.767 223.345 241.543 223.675 241.596ZM232.759 250.043L237.143 250.693C237.472 250.746 237.718 251.053 237.696 251.387C237.67 251.716 237.385 251.949 237.055 251.901L232.671 251.251C232.346 251.202 232.096 250.891 232.122 250.557C232.144 250.227 232.434 249.994 232.759 250.043ZM226.047 245.531L237.055 247.324C237.38 247.376 237.604 247.684 237.552 248.013C237.499 248.338 237.187 248.562 236.862 248.51L225.854 246.717C225.524 246.665 225.3 246.357 225.357 246.028C225.41 245.703 225.718 245.479 226.047 245.531Z" fill="#491A78"/>
<path d="M196.923 234.397C186.798 233.048 178.149 234.414 171.735 240.648C171.683 238.917 172.658 237.344 174.955 235.978C177.986 234.524 181.869 233.927 186.258 233.83C188.726 233.422 190.488 230.707 187.769 229.35L169.908 230.044C165.717 233.039 161.738 237.138 157.912 242.036C149.038 247.944 143.978 255.781 141.5 264.887C146.236 274.463 150.005 283.345 150.527 289.886C160.877 291.59 171.696 284.179 183.227 262.993C191.494 262.813 198.803 261.561 203.995 257.942C206.772 256.281 206.394 252.249 202.353 253.778C196.387 255.438 189.666 255.794 182.344 255.104C188.401 249.85 195.671 247.891 203.995 248.792C207.149 248.326 207.154 244.601 202.985 243.929C199.207 242.339 195.179 242.457 188.691 243.31L177.103 248.664C178.711 244.535 183.477 241.078 197.49 239.576C200.934 238.697 200.982 235.447 196.923 234.397Z" fill="#A476D4"/>
<path d="M150.527 289.886C160.877 291.59 171.696 284.179 183.227 262.993C191.494 262.813 198.803 261.561 203.995 257.942C206.772 256.281 206.394 252.249 202.353 253.778C196.387 255.438 189.666 255.794 182.344 255.104C188.401 249.85 195.671 247.891 203.995 248.792C207.149 248.326 207.154 244.601 202.985 243.929C199.207 242.339 195.179 242.457 188.691 243.31L177.103 248.664C178.711 244.535 183.477 241.078 197.49 239.576C200.934 238.697 200.982 235.447 196.923 234.397C186.798 233.048 178.149 234.414 171.735 240.648C171.683 238.917 172.658 237.344 174.955 235.978C177.986 234.524 181.869 233.927 186.258 233.83C188.726 233.422 190.488 230.707 187.769 229.35L169.908 230.044C165.717 233.039 161.738 237.138 157.912 242.036C149.038 247.944 143.978 255.781 141.5 264.887M255.039 609.847L257.565 593.497M264.821 607.264L265.999 598.702M272.908 603.354L273.313 599.559" stroke="#491A78" stroke-width="0.532588"/>
<path d="M181.448 376.987C177.45 471.07 150.264 520.875 134.67 592.819C164.474 599.821 194.727 599.188 225.326 592.507C229.961 513.175 206.13 457.036 206.016 371.9C200.385 378.542 190.141 379.794 181.448 376.987Z" fill="#FFC83E"/>
<path d="M181.448 376.987C173.027 374.264 166.06 367.723 166.148 358.569L167.707 352.041C166.108 352.107 164.509 352.182 162.897 352.265C161.518 355.336 160.732 358.85 160.732 362.584C160.732 374.628 168.898 384.393 178.97 384.393C179.265 384.393 179.559 384.385 179.849 384.367L181.448 376.987ZM209.904 363.326C209.289 366.827 207.914 369.669 206.016 371.9L206.798 380.791C212.5 377.106 216.374 369.889 216.374 361.595C216.374 358.459 215.821 355.476 214.824 352.783C213.071 352.638 211.305 352.511 209.53 352.397L209.904 363.326Z" fill="#3D0077"/>
</g>
<g filter="url(#filter0_d_89_5278)">
<rect x="60.9556" y="25.5566" width="243" height="163" rx="20" fill="white"/>
</g>
<line opacity="0.3" x1="72.9556" y1="124.057" x2="292.956" y2="124.057" stroke="#DBDCE0"/>
<path d="M146.874 55.9043L146.874 47.2751L148.539 47.2751L152.908 52.6974L152.553 52.6974L152.553 47.2751L154.646 47.2751L154.646 55.9043L152.982 55.9043L148.636 50.482L148.991 50.482L148.991 55.9043L146.874 55.9043ZM159.22 56.0389C158.526 56.0389 157.926 55.9084 157.42 55.6473C156.915 55.3861 156.523 55.0149 156.245 54.5334C155.968 54.0438 155.829 53.4645 155.829 52.7953C155.829 52.1181 155.968 51.5387 156.245 51.0573C156.523 50.5758 156.915 50.2045 157.42 49.9434C157.926 49.6823 158.526 49.5517 159.22 49.5517C159.905 49.5517 160.501 49.6823 161.007 49.9434C161.513 50.2045 161.904 50.5799 162.182 51.0695C162.459 51.5509 162.598 52.1262 162.598 52.7953C162.598 53.4563 162.459 54.0316 162.182 54.5212C161.904 55.0108 161.513 55.3861 161.007 55.6473C160.501 55.9084 159.905 56.0389 159.22 56.0389ZM159.22 54.4233C159.579 54.4233 159.864 54.2968 160.077 54.0438C160.289 53.7827 160.395 53.3665 160.395 52.7953C160.395 52.2241 160.289 51.8121 160.077 51.5591C159.864 51.298 159.579 51.1674 159.22 51.1674C158.853 51.1674 158.563 51.298 158.351 51.5591C158.139 51.8121 158.032 52.2241 158.032 52.7953C158.032 53.3665 158.139 53.7827 158.351 54.0438C158.563 54.2968 158.853 54.4233 159.22 54.4233ZM166.788 56.0389C165.906 56.0389 165.241 55.8309 164.793 55.4147C164.352 54.9904 164.132 54.3498 164.132 53.493L164.132 51.2898L162.969 51.2898L162.969 49.6864L164.132 49.6864L164.132 48.2176L166.31 47.7035L166.31 49.6864L167.828 49.6864L167.828 51.2898L166.31 51.2898L166.31 53.4073C166.31 53.7664 166.392 54.0071 166.555 54.1295C166.718 54.2437 166.914 54.3009 167.143 54.3009C167.281 54.3009 167.4 54.2927 167.498 54.2764C167.604 54.2519 167.714 54.2193 167.828 54.1785L167.828 55.8553C167.649 55.9288 167.469 55.9777 167.29 56.0022C167.118 56.0267 166.951 56.0389 166.788 56.0389ZM168.673 55.9043L168.673 49.6864L170.852 49.6864L170.852 55.9043L168.673 55.9043ZM168.625 48.8051L168.625 46.8467L170.913 46.8467L170.913 48.8051L168.625 48.8051ZM172.726 55.9043L172.726 51.2898L171.563 51.2898L171.563 49.6864L173.338 49.6864L172.726 50.2494L172.726 49.4049C172.726 48.5481 172.946 47.9075 173.387 47.4832C173.828 47.0589 174.472 46.8467 175.321 46.8467C175.533 46.8467 175.753 46.8589 175.982 46.8834C176.21 46.9079 176.414 46.9569 176.594 47.0303L176.594 48.6949C176.48 48.6541 176.349 48.6256 176.202 48.6093C176.055 48.5848 175.912 48.5725 175.774 48.5725C175.529 48.5725 175.321 48.6378 175.15 48.7684C174.978 48.8908 174.892 49.1233 174.892 49.4661L174.892 50.0169L174.586 49.6864L179.311 49.6864L179.311 55.9043L177.132 55.9043L177.132 51.2898L174.905 51.2898L174.905 55.9043L172.726 55.9043ZM177.071 48.8051L177.071 46.8467L179.36 46.8467L179.36 48.8051L177.071 48.8051ZM183.11 56.0389C182.572 56.0389 182.099 55.9125 181.691 55.6595C181.283 55.3984 180.96 55.023 180.724 54.5334C180.495 54.0438 180.381 53.4645 180.381 52.7953C180.381 52.1181 180.495 51.5387 180.724 51.0573C180.96 50.5677 181.283 50.1964 181.691 49.9434C182.099 49.6823 182.572 49.5517 183.11 49.5517C183.592 49.5517 184.024 49.666 184.408 49.8945C184.8 50.1229 185.057 50.4208 185.179 50.788L185.057 50.788L185.191 49.6864L187.284 49.6864C187.26 49.9638 187.235 50.2453 187.211 50.5309C187.195 50.8165 187.186 51.0981 187.186 51.3755L187.186 55.9043L185.032 55.9043L185.008 54.8517L185.155 54.8517C185.032 55.2107 184.775 55.5004 184.383 55.7207C184 55.9329 183.576 56.0389 183.11 56.0389ZM183.808 54.4233C184.175 54.4233 184.473 54.2968 184.702 54.0438C184.93 53.7827 185.044 53.3665 185.044 52.7953C185.044 52.2241 184.93 51.8121 184.702 51.5591C184.473 51.298 184.175 51.1674 183.808 51.1674C183.441 51.1674 183.143 51.298 182.915 51.5591C182.686 51.8121 182.572 52.2241 182.572 52.7953C182.572 53.3665 182.682 53.7827 182.902 54.0438C183.131 54.2968 183.433 54.4233 183.808 54.4233ZM191.722 56.0389C190.841 56.0389 190.176 55.8309 189.727 55.4147C189.286 54.9904 189.066 54.3498 189.066 53.493L189.066 51.2898L187.903 51.2898L187.903 49.6864L189.066 49.6864L189.066 48.2176L191.245 47.7035L191.245 49.6864L192.762 49.6864L192.762 51.2898L191.245 51.2898L191.245 53.4073C191.245 53.7664 191.326 54.0071 191.489 54.1295C191.653 54.2437 191.848 54.3009 192.077 54.3009C192.216 54.3009 192.334 54.2927 192.432 54.2764C192.538 54.2519 192.648 54.2193 192.762 54.1785L192.762 55.8553C192.583 55.9288 192.403 55.9777 192.224 56.0022C192.052 56.0267 191.885 56.0389 191.722 56.0389ZM193.608 55.9043L193.608 49.6864L195.786 49.6864L195.786 55.9043L193.608 55.9043ZM193.559 48.8051L193.559 46.8467L195.848 46.8467L195.848 48.8051L193.559 48.8051ZM200.243 56.0389C199.549 56.0389 198.949 55.9084 198.444 55.6473C197.938 55.3861 197.546 55.0149 197.269 54.5334C196.991 54.0438 196.852 53.4645 196.852 52.7953C196.852 52.1181 196.991 51.5387 197.269 51.0573C197.546 50.5758 197.938 50.2045 198.444 49.9434C198.949 49.6823 199.549 49.5517 200.243 49.5517C200.928 49.5517 201.524 49.6823 202.03 49.9434C202.536 50.2045 202.927 50.5799 203.205 51.0695C203.482 51.5509 203.621 52.1262 203.621 52.7953C203.621 53.4563 203.482 54.0316 203.205 54.5212C202.927 55.0108 202.536 55.3861 202.03 55.6473C201.524 55.9084 200.928 56.0389 200.243 56.0389ZM200.243 54.4233C200.602 54.4233 200.887 54.2968 201.1 54.0438C201.312 53.7827 201.418 53.3665 201.418 52.7953C201.418 52.2241 201.312 51.8121 201.1 51.5591C200.887 51.298 200.602 51.1674 200.243 51.1674C199.876 51.1674 199.586 51.298 199.374 51.5591C199.162 51.8121 199.056 52.2241 199.056 52.7953C199.056 53.3665 199.162 53.7827 199.374 54.0438C199.586 54.2968 199.876 54.4233 200.243 54.4233ZM204.688 55.9043L204.688 51.3755C204.688 51.0981 204.68 50.8165 204.664 50.5309C204.647 50.2453 204.623 49.9638 204.59 49.6864L206.696 49.6864L206.818 50.7635L206.683 50.7635C206.887 50.3718 207.177 50.074 207.552 49.87C207.928 49.6578 208.352 49.5517 208.825 49.5517C209.552 49.5517 210.094 49.768 210.453 50.2005C210.82 50.6248 211.004 51.2898 211.004 52.1956L211.004 55.9043L208.825 55.9043L208.825 52.2935C208.825 51.8937 208.756 51.6162 208.617 51.4612C208.479 51.298 208.279 51.2164 208.018 51.2164C207.675 51.2164 207.397 51.3306 207.185 51.5591C206.973 51.7794 206.867 52.0732 206.867 52.4404L206.867 55.9043L204.688 55.9043ZM214.701 56.0389C214.122 56.0389 213.595 55.9818 213.122 55.8676C212.657 55.7452 212.261 55.582 211.935 55.378L212.461 53.9581C212.779 54.1377 213.134 54.2845 213.526 54.3988C213.926 54.513 214.322 54.5701 214.713 54.5701C215.023 54.5701 215.248 54.5253 215.387 54.4355C215.533 54.3376 215.607 54.2111 215.607 54.0561C215.607 53.9337 215.562 53.8357 215.472 53.7623C215.383 53.6889 215.248 53.6358 215.068 53.6032L213.746 53.3706C213.224 53.2727 212.816 53.0809 212.522 52.7953C212.237 52.5016 212.094 52.1221 212.094 51.657C212.094 51.2327 212.208 50.8655 212.437 50.5554C212.665 50.2372 212.992 49.9924 213.416 49.821C213.84 49.6415 214.342 49.5517 214.921 49.5517C215.395 49.5517 215.844 49.6048 216.268 49.7109C216.7 49.8169 217.076 49.9842 217.394 50.2127L216.831 51.5958C216.578 51.4245 216.28 51.2857 215.937 51.1797C215.603 51.0654 215.289 51.0083 214.995 51.0083C214.644 51.0083 214.395 51.0613 214.248 51.1674C214.101 51.2653 214.028 51.3877 214.028 51.5346C214.028 51.6489 214.069 51.7468 214.15 51.8284C214.232 51.9018 214.363 51.9549 214.542 51.9875L215.864 52.2201C216.403 52.3098 216.815 52.4975 217.1 52.7831C217.394 53.0605 217.541 53.44 217.541 53.9214C217.541 54.3702 217.418 54.7537 217.174 55.072C216.937 55.3821 216.607 55.6228 216.182 55.7941C215.758 55.9573 215.264 56.0389 214.701 56.0389Z" fill="black"/>
<g filter="url(#filter1_d_89_5278)">
<mask id="path-17-inside-1_89_5278" fill="white">
<path fill-rule="evenodd" clip-rule="evenodd" d="M88.9553 90.5572C86.1939 90.5572 83.9553 92.7958 83.9553 95.5572L83.9553 102.557C83.9553 105.003 85.711 107.038 88.0306 107.472L90.9975 112.611L93.9151 107.557L107.955 107.557C110.717 107.557 112.955 105.319 112.955 102.557L112.955 95.5572C112.955 92.7958 110.717 90.5572 107.955 90.5572L88.9553 90.5572Z"/>
</mask>
<path fill-rule="evenodd" clip-rule="evenodd" d="M88.9553 90.5572C86.1939 90.5572 83.9553 92.7958 83.9553 95.5572L83.9553 102.557C83.9553 105.003 85.711 107.038 88.0306 107.472L90.9975 112.611L93.9151 107.557L107.955 107.557C110.717 107.557 112.955 105.319 112.955 102.557L112.955 95.5572C112.955 92.7958 110.717 90.5572 107.955 90.5572L88.9553 90.5572Z" fill="#DFE3FF"/>
<path d="M83.9553 95.5572L84.4553 95.5572L83.9553 95.5572ZM88.9553 90.5572L88.9553 90.0572H88.9553L88.9553 90.5572ZM83.9553 102.557L83.4553 102.557L83.9553 102.557ZM88.0306 107.472L88.4636 107.222L88.3486 107.023L88.1225 106.98L88.0306 107.472ZM90.9975 112.611L90.5645 112.861L90.9975 113.611L91.4305 112.861L90.9975 112.611ZM93.9151 107.557L93.9151 107.057L93.6265 107.057L93.4821 107.307L93.9151 107.557ZM107.955 107.557L107.955 108.057H107.955L107.955 107.557ZM112.955 102.557L112.455 102.557V102.557L112.955 102.557ZM112.955 95.5572L113.455 95.5572V95.5572L112.955 95.5572ZM107.955 90.5572L107.955 91.0572H107.955L107.955 90.5572ZM84.4553 95.5572C84.4553 93.0719 86.47 91.0572 88.9553 91.0572L88.9553 90.0572C85.9177 90.0572 83.4553 92.5196 83.4553 95.5572L84.4553 95.5572ZM84.4553 102.557L84.4553 95.5572L83.4553 95.5572L83.4553 102.557L84.4553 102.557ZM88.1225 106.98C86.0351 106.59 84.4553 104.758 84.4553 102.557L83.4553 102.557C83.4553 105.248 85.3868 107.486 87.9387 107.963L88.1225 106.98ZM87.5976 107.722L90.5645 112.861L91.4305 112.361L88.4636 107.222L87.5976 107.722ZM91.4305 112.861L94.3481 107.807L93.4821 107.307L90.5645 112.361L91.4305 112.861ZM107.955 107.057L93.9151 107.057L93.9151 108.057L107.955 108.057L107.955 107.057ZM112.455 102.557C112.455 105.042 110.441 107.057 107.955 107.057L107.955 108.057C110.993 108.057 113.455 105.595 113.455 102.557L112.455 102.557ZM112.455 95.5572L112.455 102.557L113.455 102.557L113.455 95.5572L112.455 95.5572ZM107.955 91.0572C110.441 91.0572 112.455 93.0719 112.455 95.5572L113.455 95.5572C113.455 92.5196 110.993 90.0572 107.955 90.0572L107.955 91.0572ZM88.9553 91.0572L107.955 91.0572L107.955 90.0572L88.9553 90.0572L88.9553 91.0572Z" fill="#EFF1FF" mask="url(#path-17-inside-1_89_5278)"/>
</g>
<circle cx="91.4608" cy="99.0879" r="1.5" fill="#40196D"/>
<circle cx="98.4608" cy="99.0879" r="1.5" fill="#40196D"/>
<circle cx="105.461" cy="99.0879" r="1.5" fill="#40196D"/>
<path d="M109.041 82.2385C110.114 80.3799 112.797 80.3799 113.87 82.2385L119 91.125C120.073 92.9836 118.732 95.3068 116.586 95.3068L106.325 95.3068C104.179 95.3068 102.837 92.9836 103.91 91.125L109.041 82.2385Z" fill="#FFDBDB"/>
<path d="M109.845 82.9781C110.571 81.7205 112.386 81.7205 113.112 82.9781L118.013 91.4672C118.74 92.7249 117.832 94.2969 116.38 94.2969L106.577 94.2969C105.125 94.2969 104.218 92.7249 104.944 91.4672L109.845 82.9781Z" fill="#F7685B"/>
<path d="M111.943 86.333C111.943 86.0768 111.735 85.8691 111.479 85.8691V85.8691C111.223 85.8691 111.015 86.0768 111.015 86.333L111.015 89.271C111.015 89.5272 111.223 89.7349 111.479 89.7349V89.7349C111.735 89.7349 111.943 89.5272 111.943 89.271L111.943 86.333Z" fill="white"/>
<rect x="111.015" y="90.4707" width="0.92777" height="0.92777" rx="0.463885" fill="white"/>
<path d="M133.195 93.6566C132.629 93.6566 132.105 93.5866 131.625 93.4466C131.152 93.3 130.745 93.1 130.405 92.8466L130.805 91.8366C131.032 91.9966 131.269 92.1333 131.515 92.2466C131.762 92.3533 132.025 92.4366 132.305 92.4966C132.585 92.55 132.882 92.5766 133.195 92.5766C133.722 92.5766 134.102 92.49 134.335 92.3166C134.569 92.1433 134.685 91.9166 134.685 91.6366C134.685 91.39 134.605 91.2033 134.445 91.0766C134.285 90.9433 133.999 90.8333 133.585 90.7466L132.455 90.5166C131.809 90.3833 131.325 90.16 131.005 89.8466C130.685 89.5333 130.525 89.1133 130.525 88.5866C130.525 88.1466 130.642 87.7633 130.875 87.4366C131.109 87.11 131.435 86.8566 131.855 86.6766C132.275 86.4966 132.765 86.4066 133.325 86.4066C133.825 86.4066 134.289 86.48 134.715 86.6266C135.142 86.7666 135.499 86.97 135.785 87.2366L135.385 88.1966C135.099 87.9566 134.785 87.78 134.445 87.6666C134.105 87.5466 133.725 87.4866 133.305 87.4866C132.832 87.4866 132.462 87.58 132.195 87.7666C131.935 87.9466 131.805 88.1966 131.805 88.5166C131.805 88.7633 131.885 88.96 132.045 89.1066C132.212 89.2533 132.492 89.3666 132.885 89.4466L134.005 89.6666C134.672 89.8 135.165 90.02 135.485 90.3266C135.805 90.6266 135.965 91.0333 135.965 91.5466C135.965 91.9666 135.852 92.3366 135.625 92.6566C135.399 92.97 135.079 93.2166 134.665 93.3966C134.252 93.57 133.762 93.6566 133.195 93.6566ZM139.4 93.6566C138.88 93.6566 138.424 93.55 138.03 93.3366C137.644 93.1233 137.344 92.82 137.13 92.4266C136.917 92.0266 136.81 91.5533 136.81 91.0066C136.81 90.46 136.917 89.9933 137.13 89.6066C137.35 89.22 137.654 88.9233 138.04 88.7166C138.427 88.51 138.88 88.4066 139.4 88.4066C139.734 88.4066 140.057 88.46 140.37 88.5666C140.69 88.6666 140.95 88.8133 141.15 89.0066L140.77 89.8766C140.59 89.71 140.387 89.5866 140.16 89.5066C139.94 89.42 139.724 89.3766 139.51 89.3766C139.064 89.3766 138.714 89.5166 138.46 89.7966C138.214 90.0766 138.09 90.4833 138.09 91.0166C138.09 91.55 138.214 91.96 138.46 92.2466C138.714 92.5333 139.064 92.6766 139.51 92.6766C139.717 92.6766 139.93 92.6366 140.15 92.5566C140.377 92.4766 140.584 92.3533 140.77 92.1866L141.15 93.0466C140.944 93.24 140.68 93.39 140.36 93.4966C140.047 93.6033 139.727 93.6566 139.4 93.6566ZM144.04 93.6566C143.6 93.6566 143.214 93.5533 142.88 93.3466C142.547 93.1333 142.287 92.83 142.1 92.4366C141.914 92.0433 141.82 91.5733 141.82 91.0266C141.82 90.48 141.914 90.0133 142.1 89.6266C142.287 89.2333 142.547 88.9333 142.88 88.7266C143.214 88.5133 143.6 88.4066 144.04 88.4066C144.467 88.4066 144.84 88.5133 145.16 88.7266C145.487 88.9333 145.704 89.2133 145.81 89.5666L145.7 89.5666L145.81 88.5066L147.01 88.5066C146.99 88.7133 146.97 88.9233 146.95 89.1366C146.937 89.35 146.93 89.56 146.93 89.7666L146.93 93.5566L145.69 93.5566L145.68 92.5166L145.8 92.5166C145.694 92.8633 145.477 93.14 145.15 93.3466C144.824 93.5533 144.454 93.6566 144.04 93.6566ZM144.39 92.6966C144.784 92.6966 145.1 92.56 145.34 92.2866C145.58 92.0066 145.7 91.5866 145.7 91.0266C145.7 90.4666 145.58 90.05 145.34 89.7766C145.1 89.5033 144.784 89.3666 144.39 89.3666C143.997 89.3666 143.68 89.5033 143.44 89.7766C143.2 90.05 143.08 90.4666 143.08 91.0266C143.08 91.5866 143.197 92.0066 143.43 92.2866C143.67 92.56 143.99 92.6966 144.39 92.6966ZM148.291 93.5566L148.291 89.7666C148.291 89.56 148.285 89.35 148.271 89.1366C148.258 88.9233 148.238 88.7133 148.211 88.5066L149.421 88.5066L149.521 89.5066L149.401 89.5066C149.541 89.16 149.755 88.89 150.041 88.6966C150.335 88.5033 150.681 88.4066 151.081 88.4066C151.481 88.4066 151.811 88.5033 152.071 88.6966C152.338 88.8833 152.525 89.1766 152.631 89.5766L152.471 89.5766C152.611 89.2166 152.841 88.9333 153.161 88.7266C153.481 88.5133 153.848 88.4066 154.261 88.4066C154.828 88.4066 155.251 88.5733 155.531 88.9066C155.811 89.24 155.951 89.76 155.951 90.4666L155.951 93.5566L154.701 93.5566L154.701 90.5166C154.701 90.1166 154.635 89.83 154.501 89.6566C154.368 89.4766 154.155 89.3866 153.861 89.3866C153.515 89.3866 153.241 89.51 153.041 89.7566C152.841 89.9966 152.741 90.3233 152.741 90.7366L152.741 93.5566L151.491 93.5566L151.491 90.5166C151.491 90.1166 151.425 89.83 151.291 89.6566C151.158 89.4766 150.945 89.3866 150.651 89.3866C150.305 89.3866 150.031 89.51 149.831 89.7566C149.638 89.9966 149.541 90.3233 149.541 90.7366L149.541 93.5566L148.291 93.5566ZM159.35 93.5566L162.54 86.5066L163.62 86.5066L166.85 93.5566L165.54 93.5566L164.68 91.5766L165.2 91.9266L160.97 91.9266L161.51 91.5766L160.65 93.5566L159.35 93.5566ZM163.07 87.8866L161.66 91.2266L161.4 90.9166L164.76 90.9166L164.55 91.2266L163.11 87.8866L163.07 87.8866ZM167.53 93.5566L167.53 86.1966L168.78 86.1966L168.78 93.5566L167.53 93.5566ZM172.577 93.6566C171.73 93.6566 171.067 93.4233 170.587 92.9566C170.107 92.49 169.867 91.85 169.867 91.0366C169.867 90.51 169.97 90.05 170.177 89.6566C170.384 89.2633 170.67 88.9566 171.037 88.7366C171.41 88.5166 171.844 88.4066 172.337 88.4066C172.824 88.4066 173.23 88.51 173.557 88.7166C173.884 88.9233 174.13 89.2133 174.297 89.5866C174.47 89.96 174.557 90.3966 174.557 90.8966L174.557 91.2266L170.877 91.2266L170.877 90.5666L173.667 90.5666L173.497 90.7066C173.497 90.24 173.397 89.8833 173.197 89.6366C173.004 89.39 172.72 89.2666 172.347 89.2666C171.934 89.2666 171.614 89.4133 171.387 89.7066C171.167 90 171.057 90.41 171.057 90.9366L171.057 91.0666C171.057 91.6133 171.19 92.0233 171.457 92.2966C171.73 92.5633 172.114 92.6966 172.607 92.6966C172.894 92.6966 173.16 92.66 173.407 92.5866C173.66 92.5066 173.9 92.38 174.127 92.2066L174.497 93.0466C174.257 93.24 173.97 93.39 173.637 93.4966C173.304 93.6033 172.95 93.6566 172.577 93.6566ZM175.606 93.5566L175.606 89.7966C175.606 89.5833 175.599 89.3666 175.586 89.1466C175.579 88.9266 175.562 88.7133 175.536 88.5066L176.746 88.5066L176.886 89.8866L176.686 89.8866C176.752 89.5533 176.862 89.2766 177.016 89.0566C177.176 88.8366 177.369 88.6733 177.596 88.5666C177.822 88.46 178.069 88.4066 178.336 88.4066C178.456 88.4066 178.552 88.4133 178.626 88.4266C178.699 88.4333 178.772 88.45 178.846 88.4766L178.836 89.5766C178.709 89.5233 178.599 89.49 178.506 89.4766C178.419 89.4633 178.309 89.4566 178.176 89.4566C177.889 89.4566 177.646 89.5166 177.446 89.6366C177.252 89.7566 177.106 89.9233 177.006 90.1366C176.912 90.35 176.866 90.5933 176.866 90.8666L176.866 93.5566L175.606 93.5566ZM181.985 93.6566C181.385 93.6566 180.931 93.5 180.625 93.1866C180.318 92.8733 180.165 92.4033 180.165 91.7766L180.165 89.4466L179.195 89.4466L179.195 88.5066L180.165 88.5066L180.165 87.2166L181.415 86.8966L181.415 88.5066L182.765 88.5066L182.765 89.4466L181.415 89.4466L181.415 91.6966C181.415 92.0433 181.481 92.2866 181.615 92.4266C181.748 92.5666 181.931 92.6366 182.165 92.6366C182.291 92.6366 182.398 92.6266 182.485 92.6066C182.578 92.5866 182.668 92.56 182.755 92.5266L182.755 93.5166C182.641 93.5633 182.515 93.5966 182.375 93.6166C182.241 93.6433 182.111 93.6566 181.985 93.6566ZM183.813 91.4666L183.423 86.5066L184.963 86.5066L184.573 91.4666L183.813 91.4666ZM183.493 93.5566L183.493 92.1666L184.893 92.1666L184.893 93.5566L183.493 93.5566Z" fill="black"/>
<rect x="129.656" y="102.109" width="137" height="7" rx="3.5" fill="#D9D9D9"/>
<g filter="url(#filter2_d_89_5278)">
<mask id="path-28-inside-2_89_5278" fill="white">
<path fill-rule="evenodd" clip-rule="evenodd" d="M88.9552 145.557C86.1937 145.557 83.9552 147.796 83.9552 150.557L83.9552 157.557C83.9552 160.003 85.7108 162.038 88.0305 162.472L90.9974 167.611L93.915 162.557L107.955 162.557C110.717 162.557 112.955 160.319 112.955 157.557L112.955 150.557C112.955 147.796 110.717 145.557 107.955 145.557L88.9552 145.557Z"/>
</mask>
<path fill-rule="evenodd" clip-rule="evenodd" d="M88.9552 145.557C86.1937 145.557 83.9552 147.796 83.9552 150.557L83.9552 157.557C83.9552 160.003 85.7108 162.038 88.0305 162.472L90.9974 167.611L93.915 162.557L107.955 162.557C110.717 162.557 112.955 160.319 112.955 157.557L112.955 150.557C112.955 147.796 110.717 145.557 107.955 145.557L88.9552 145.557Z" fill="#DFE3FF"/>
<path d="M83.9552 150.557L84.4552 150.557L83.9552 150.557ZM88.9552 145.557L88.9552 145.057H88.9552L88.9552 145.557ZM83.9552 157.557L83.4552 157.557L83.9552 157.557ZM88.0305 162.472L88.4635 162.222L88.3485 162.023L88.1224 161.98L88.0305 162.472ZM90.9974 167.611L90.5644 167.861L90.9974 168.611L91.4304 167.861L90.9974 167.611ZM93.915 162.557L93.915 162.057L93.6263 162.057L93.482 162.307L93.915 162.557ZM107.955 162.557L107.955 163.057H107.955L107.955 162.557ZM112.955 157.557L112.455 157.557V157.557L112.955 157.557ZM112.955 150.557L113.455 150.557V150.557L112.955 150.557ZM107.955 145.557L107.955 146.057H107.955L107.955 145.557ZM84.4552 150.557C84.4552 148.072 86.4699 146.057 88.9552 146.057L88.9552 145.057C85.9176 145.057 83.4552 147.52 83.4552 150.557L84.4552 150.557ZM84.4552 157.557L84.4552 150.557L83.4552 150.557L83.4552 157.557L84.4552 157.557ZM88.1224 161.98C86.035 161.59 84.4552 159.758 84.4552 157.557L83.4552 157.557C83.4552 160.248 85.3867 162.486 87.9386 162.963L88.1224 161.98ZM87.5975 162.722L90.5644 167.861L91.4304 167.361L88.4635 162.222L87.5975 162.722ZM91.4304 167.861L94.348 162.807L93.482 162.307L90.5644 167.361L91.4304 167.861ZM107.955 162.057L93.915 162.057L93.915 163.057L107.955 163.057L107.955 162.057ZM112.455 157.557C112.455 160.042 110.44 162.057 107.955 162.057L107.955 163.057C110.993 163.057 113.455 160.595 113.455 157.557L112.455 157.557ZM112.455 150.557L112.455 157.557L113.455 157.557L113.455 150.557L112.455 150.557ZM107.955 146.057C110.44 146.057 112.455 148.072 112.455 150.557L113.455 150.557C113.455 147.52 110.993 145.057 107.955 145.057L107.955 146.057ZM88.9552 146.057L107.955 146.057L107.955 145.057L88.9552 145.057L88.9552 146.057Z" fill="#EFF1FF" mask="url(#path-28-inside-2_89_5278)"/>
</g>
<circle cx="91.4607" cy="154.088" r="1.5" fill="#40196D"/>
<circle cx="98.4607" cy="154.088" r="1.5" fill="#40196D"/>
<circle cx="105.461" cy="154.088" r="1.5" fill="#40196D"/>
<path d="M109.041 137.238C110.114 135.38 112.797 135.38 113.87 137.239L119 146.125C120.073 147.984 118.732 150.307 116.586 150.307L106.325 150.307C104.179 150.307 102.837 147.984 103.91 146.125L109.041 137.238Z" fill="#FFDBDB"/>
<path d="M109.845 137.978C110.571 136.72 112.386 136.72 113.112 137.978L118.013 146.467C118.74 147.725 117.832 149.297 116.38 149.297L106.577 149.297C105.125 149.297 104.218 147.725 104.944 146.467L109.845 137.978Z" fill="#F7685B"/>
<path d="M111.943 141.333C111.943 141.077 111.735 140.869 111.479 140.869V140.869C111.223 140.869 111.015 141.077 111.015 141.333L111.015 144.271C111.015 144.527 111.223 144.735 111.479 144.735V144.735C111.735 144.735 111.943 144.527 111.943 144.271L111.943 141.333Z" fill="white"/>
<rect x="111.015" y="145.471" width="0.92777" height="0.92777" rx="0.463885" fill="white"/>
<path d="M133.195 148.657C132.628 148.657 132.105 148.587 131.625 148.447C131.152 148.3 130.745 148.1 130.405 147.847L130.805 146.837C131.032 146.997 131.268 147.133 131.515 147.247C131.762 147.353 132.025 147.437 132.305 147.497C132.585 147.55 132.882 147.577 133.195 147.577C133.722 147.577 134.102 147.49 134.335 147.317C134.568 147.143 134.685 146.917 134.685 146.637C134.685 146.39 134.605 146.203 134.445 146.077C134.285 145.943 133.998 145.833 133.585 145.747L132.455 145.517C131.808 145.383 131.325 145.16 131.005 144.847C130.685 144.533 130.525 144.113 130.525 143.587C130.525 143.147 130.642 142.763 130.875 142.437C131.108 142.11 131.435 141.857 131.855 141.677C132.275 141.497 132.765 141.407 133.325 141.407C133.825 141.407 134.288 141.48 134.715 141.627C135.142 141.767 135.498 141.97 135.785 142.237L135.385 143.197C135.098 142.957 134.785 142.78 134.445 142.667C134.105 142.547 133.725 142.487 133.305 142.487C132.832 142.487 132.462 142.58 132.195 142.767C131.935 142.947 131.805 143.197 131.805 143.517C131.805 143.763 131.885 143.96 132.045 144.107C132.212 144.253 132.492 144.367 132.885 144.447L134.005 144.667C134.672 144.8 135.165 145.02 135.485 145.327C135.805 145.627 135.965 146.033 135.965 146.547C135.965 146.967 135.852 147.337 135.625 147.657C135.398 147.97 135.078 148.217 134.665 148.397C134.252 148.57 133.762 148.657 133.195 148.657ZM139.4 148.657C138.88 148.657 138.424 148.55 138.03 148.337C137.644 148.123 137.344 147.82 137.13 147.427C136.917 147.027 136.81 146.553 136.81 146.007C136.81 145.46 136.917 144.993 137.13 144.607C137.35 144.22 137.654 143.923 138.04 143.717C138.427 143.51 138.88 143.407 139.4 143.407C139.734 143.407 140.057 143.46 140.37 143.567C140.69 143.667 140.95 143.813 141.15 144.007L140.77 144.877C140.59 144.71 140.387 144.587 140.16 144.507C139.94 144.42 139.724 144.377 139.51 144.377C139.064 144.377 138.714 144.517 138.46 144.797C138.214 145.077 138.09 145.483 138.09 146.017C138.09 146.55 138.214 146.96 138.46 147.247C138.714 147.533 139.064 147.677 139.51 147.677C139.717 147.677 139.93 147.637 140.15 147.557C140.377 147.477 140.584 147.353 140.77 147.187L141.15 148.047C140.944 148.24 140.68 148.39 140.36 148.497C140.047 148.603 139.727 148.657 139.4 148.657ZM144.04 148.657C143.6 148.657 143.214 148.553 142.88 148.347C142.547 148.133 142.287 147.83 142.1 147.437C141.914 147.043 141.82 146.573 141.82 146.027C141.82 145.48 141.914 145.013 142.1 144.627C142.287 144.233 142.547 143.933 142.88 143.727C143.214 143.513 143.6 143.407 144.04 143.407C144.467 143.407 144.84 143.513 145.16 143.727C145.487 143.933 145.704 144.213 145.81 144.567L145.7 144.567L145.81 143.507L147.01 143.507C146.99 143.713 146.97 143.923 146.95 144.137C146.937 144.35 146.93 144.56 146.93 144.767L146.93 148.557L145.69 148.557L145.68 147.517L145.8 147.517C145.694 147.863 145.477 148.14 145.15 148.347C144.824 148.553 144.454 148.657 144.04 148.657ZM144.39 147.697C144.784 147.697 145.1 147.56 145.34 147.287C145.58 147.007 145.7 146.587 145.7 146.027C145.7 145.467 145.58 145.05 145.34 144.777C145.1 144.503 144.784 144.367 144.39 144.367C143.997 144.367 143.68 144.503 143.44 144.777C143.2 145.05 143.08 145.467 143.08 146.027C143.08 146.587 143.197 147.007 143.43 147.287C143.67 147.56 143.99 147.697 144.39 147.697ZM148.291 148.557L148.291 144.767C148.291 144.56 148.285 144.35 148.271 144.137C148.258 143.923 148.238 143.713 148.211 143.507L149.421 143.507L149.521 144.507L149.401 144.507C149.541 144.16 149.755 143.89 150.041 143.697C150.335 143.503 150.681 143.407 151.081 143.407C151.481 143.407 151.811 143.503 152.071 143.697C152.338 143.883 152.525 144.177 152.631 144.577L152.471 144.577C152.611 144.217 152.841 143.933 153.161 143.727C153.481 143.513 153.848 143.407 154.261 143.407C154.828 143.407 155.251 143.573 155.531 143.907C155.811 144.24 155.951 144.76 155.951 145.467L155.951 148.557L154.701 148.557L154.701 145.517C154.701 145.117 154.635 144.83 154.501 144.657C154.368 144.477 154.155 144.387 153.861 144.387C153.515 144.387 153.241 144.51 153.041 144.757C152.841 144.997 152.741 145.323 152.741 145.737L152.741 148.557L151.491 148.557L151.491 145.517C151.491 145.117 151.425 144.83 151.291 144.657C151.158 144.477 150.945 144.387 150.651 144.387C150.305 144.387 150.031 144.51 149.831 144.757C149.638 144.997 149.541 145.323 149.541 145.737L149.541 148.557L148.291 148.557ZM159.35 148.557L162.54 141.507L163.62 141.507L166.85 148.557L165.54 148.557L164.68 146.577L165.2 146.927L160.97 146.927L161.51 146.577L160.65 148.557L159.35 148.557ZM163.07 142.887L161.66 146.227L161.4 145.917L164.76 145.917L164.55 146.227L163.11 142.887L163.07 142.887ZM167.53 148.557L167.53 141.197L168.78 141.197L168.78 148.557L167.53 148.557ZM172.577 148.657C171.73 148.657 171.067 148.423 170.587 147.957C170.107 147.49 169.867 146.85 169.867 146.037C169.867 145.51 169.97 145.05 170.177 144.657C170.384 144.263 170.67 143.957 171.037 143.737C171.41 143.517 171.844 143.407 172.337 143.407C172.824 143.407 173.23 143.51 173.557 143.717C173.884 143.923 174.13 144.213 174.297 144.587C174.47 144.96 174.557 145.397 174.557 145.897L174.557 146.227L170.877 146.227L170.877 145.567L173.667 145.567L173.497 145.707C173.497 145.24 173.397 144.883 173.197 144.637C173.004 144.39 172.72 144.267 172.347 144.267C171.934 144.267 171.614 144.413 171.387 144.707C171.167 145 171.057 145.41 171.057 145.937L171.057 146.067C171.057 146.613 171.19 147.023 171.457 147.297C171.73 147.563 172.114 147.697 172.607 147.697C172.894 147.697 173.16 147.66 173.407 147.587C173.66 147.507 173.9 147.38 174.127 147.207L174.497 148.047C174.257 148.24 173.97 148.39 173.637 148.497C173.304 148.603 172.95 148.657 172.577 148.657ZM175.606 148.557L175.606 144.797C175.606 144.583 175.599 144.367 175.586 144.147C175.579 143.927 175.562 143.713 175.536 143.507L176.746 143.507L176.886 144.887L176.686 144.887C176.752 144.553 176.862 144.277 177.016 144.057C177.176 143.837 177.369 143.673 177.596 143.567C177.822 143.46 178.069 143.407 178.336 143.407C178.456 143.407 178.552 143.413 178.626 143.427C178.699 143.433 178.772 143.45 178.846 143.477L178.836 144.577C178.709 144.523 178.599 144.49 178.506 144.477C178.419 144.463 178.309 144.457 178.176 144.457C177.889 144.457 177.646 144.517 177.446 144.637C177.252 144.757 177.106 144.923 177.006 145.137C176.912 145.35 176.866 145.593 176.866 145.867L176.866 148.557L175.606 148.557ZM181.985 148.657C181.385 148.657 180.931 148.5 180.625 148.187C180.318 147.873 180.165 147.403 180.165 146.777L180.165 144.447L179.195 144.447L179.195 143.507L180.165 143.507L180.165 142.217L181.415 141.897L181.415 143.507L182.765 143.507L182.765 144.447L181.415 144.447L181.415 146.697C181.415 147.043 181.481 147.287 181.615 147.427C181.748 147.567 181.931 147.637 182.165 147.637C182.291 147.637 182.398 147.627 182.485 147.607C182.578 147.587 182.668 147.56 182.755 147.527L182.755 148.517C182.641 148.563 182.515 148.597 182.375 148.617C182.241 148.643 182.111 148.657 181.985 148.657ZM183.813 146.467L183.423 141.507L184.963 141.507L184.573 146.467L183.813 146.467ZM183.493 148.557L183.493 147.167L184.893 147.167L184.893 148.557L183.493 148.557Z" fill="black"/>
<rect x="129.656" y="157.109" width="137" height="7" rx="3.5" fill="#D9D9D9"/>
<defs>
<filter id="filter0_d_89_5278" x="35.9556" y="0.556641" width="293" height="213" filterUnits="userSpaceOnUse" color-interpolation-filters="sRGB">
<feFlood flood-opacity="0" result="BackgroundImageFix"/>
<feColorMatrix in="SourceAlpha" type="matrix" values="0 0 0 0 0 0 0 0 0 0 0 0 0 0 0 0 0 0 127 0" result="hardAlpha"/>
<feOffset/>
<feGaussianBlur stdDeviation="12.5"/>
<feColorMatrix type="matrix" values="0 0 0 0 0 0 0 0 0 0 0 0 0 0 0 0 0 0 0.06 0"/>
<feBlend mode="normal" in2="BackgroundImageFix" result="effect1_dropShadow_89_5278"/>
<feBlend mode="normal" in="SourceGraphic" in2="effect1_dropShadow_89_5278" result="shape"/>
</filter>
<filter id="filter1_d_89_5278" x="73.9553" y="80.5566" width="49" height="42.0547" filterUnits="userSpaceOnUse" color-interpolation-filters="sRGB">
<feFlood flood-opacity="0" result="BackgroundImageFix"/>
<feColorMatrix in="SourceAlpha" type="matrix" values="0 0 0 0 0 0 0 0 0 0 0 0 0 0 0 0 0 0 127 0" result="hardAlpha"/>
<feOffset/>
<feGaussianBlur stdDeviation="5"/>
<feColorMatrix type="matrix" values="0 0 0 0 0 0 0 0 0 0 0 0 0 0 0 0 0 0 0.06 0"/>
<feBlend mode="normal" in2="BackgroundImageFix" result="effect1_dropShadow_89_5278"/>
<feBlend mode="normal" in="SourceGraphic" in2="effect1_dropShadow_89_5278" result="shape"/>
</filter>
<filter id="filter2_d_89_5278" x="73.9552" y="135.557" width="49" height="42.0547" filterUnits="userSpaceOnUse" color-interpolation-filters="sRGB">
<feFlood flood-opacity="0" result="BackgroundImageFix"/>
<feColorMatrix in="SourceAlpha" type="matrix" values="0 0 0 0 0 0 0 0 0 0 0 0 0 0 0 0 0 0 127 0" result="hardAlpha"/>
<feOffset/>
<feGaussianBlur stdDeviation="5"/>
<feColorMatrix type="matrix" values="0 0 0 0 0 0 0 0 0 0 0 0 0 0 0 0 0 0 0.06 0"/>
<feBlend mode="normal" in2="BackgroundImageFix" result="effect1_dropShadow_89_5278"/>
<feBlend mode="normal" in="SourceGraphic" in2="effect1_dropShadow_89_5278" result="shape"/>
</filter>
</defs>
</svg>
