<svg width="37" height="37" viewBox="0 0 37 37" fill="none" xmlns="http://www.w3.org/2000/svg">
<circle cx="18.5" cy="18.5" r="18.5" fill="#DFE3FF"/>
<g clip-path="url(#clip0_89_4865)">
<path fill-rule="evenodd" clip-rule="evenodd" d="M15.2208 8.88898C16.1983 8.84398 16.51 8.83398 19 8.83398C21.49 8.83398 21.8016 8.84482 22.7783 8.88898C23.755 8.93315 24.4216 9.08898 25.005 9.31482C25.6158 9.54565 26.17 9.90648 26.6283 10.3732C27.095 10.8307 27.455 11.384 27.685 11.9957C27.9116 12.579 28.0666 13.2457 28.1116 14.2207C28.1566 15.1998 28.1666 15.5115 28.1666 18.0007C28.1666 20.4907 28.1558 20.8023 28.1116 21.7798C28.0675 22.7548 27.9116 23.4215 27.685 24.0048C27.455 24.6166 27.0944 25.1708 26.6283 25.629C26.17 26.0957 25.6158 26.4557 25.005 26.6857C24.4216 26.9123 23.755 27.0673 22.78 27.1123C21.8016 27.1573 21.49 27.1673 19 27.1673C16.51 27.1673 16.1983 27.1565 15.2208 27.1123C14.2458 27.0682 13.5791 26.9123 12.9958 26.6857C12.3841 26.4556 11.8298 26.095 11.3716 25.629C10.9053 25.1712 10.5444 24.6172 10.3141 24.0057C10.0883 23.4223 9.93331 22.7557 9.88831 21.7807C9.84331 20.8015 9.83331 20.4898 9.83331 18.0007C9.83331 15.5107 9.84415 15.199 9.88831 14.2223C9.93248 13.2457 10.0883 12.579 10.3141 11.9957C10.5447 11.3841 10.9059 10.8301 11.3725 10.3723C11.83 9.90607 12.3837 9.54519 12.995 9.31482C13.5783 9.08898 14.245 8.93398 15.22 8.88898H15.2208ZM22.7041 10.539C21.7375 10.4948 21.4475 10.4857 19 10.4857C16.5525 10.4857 16.2625 10.4948 15.2958 10.539C14.4016 10.5798 13.9166 10.729 13.5933 10.8548C13.1658 11.0215 12.86 11.219 12.5391 11.5398C12.235 11.8357 12.001 12.1959 11.8541 12.594C11.7283 12.9173 11.5791 13.4023 11.5383 14.2965C11.4941 15.2632 11.485 15.5532 11.485 18.0007C11.485 20.4482 11.4941 20.7382 11.5383 21.7048C11.5791 22.599 11.7283 23.084 11.8541 23.4073C12.0008 23.8048 12.235 24.1657 12.5391 24.4615C12.835 24.7657 13.1958 24.9998 13.5933 25.1465C13.9166 25.2723 14.4016 25.4215 15.2958 25.4623C16.2625 25.5065 16.5516 25.5157 19 25.5157C21.4483 25.5157 21.7375 25.5065 22.7041 25.4623C23.5983 25.4215 24.0833 25.2723 24.4066 25.1465C24.8341 24.9798 25.14 24.7823 25.4608 24.4615C25.765 24.1657 25.9991 23.8048 26.1458 23.4073C26.2716 23.084 26.4208 22.599 26.4616 21.7048C26.5058 20.7382 26.515 20.4482 26.515 18.0007C26.515 15.5532 26.5058 15.2632 26.4616 14.2965C26.4208 13.4023 26.2716 12.9173 26.1458 12.594C25.9791 12.1665 25.7816 11.8607 25.4608 11.5398C25.1649 11.2357 24.8047 11.0017 24.4066 10.8548C24.0833 10.729 23.5983 10.5798 22.7041 10.539V10.539ZM17.8291 20.8265C18.483 21.0987 19.2111 21.1354 19.8891 20.9304C20.567 20.7254 21.1528 20.2914 21.5463 19.7025C21.9398 19.1136 22.1167 18.4064 22.0467 17.7016C21.9767 16.9968 21.6642 16.3381 21.1625 15.8382C20.8427 15.5185 20.456 15.2738 20.0303 15.1216C19.6045 14.9694 19.1503 14.9135 18.7004 14.9578C18.2504 15.0022 17.8159 15.1458 17.4281 15.3783C17.0404 15.6107 16.7089 15.9263 16.4577 16.3022C16.2065 16.6781 16.0418 17.1051 15.9754 17.5523C15.909 17.9995 15.9426 18.4559 16.0738 18.8886C16.2049 19.3213 16.4304 19.7195 16.7339 20.0546C17.0374 20.3897 17.4115 20.6533 17.8291 20.8265ZM15.6683 14.669C16.1058 14.2315 16.6252 13.8844 17.1969 13.6476C17.7685 13.4108 18.3812 13.289 19 13.289C19.6187 13.289 20.2314 13.4108 20.8031 13.6476C21.3747 13.8844 21.8941 14.2315 22.3316 14.669C22.7692 15.1065 23.1162 15.6259 23.353 16.1976C23.5898 16.7692 23.7117 17.3819 23.7117 18.0007C23.7117 18.6194 23.5898 19.2321 23.353 19.8037C23.1162 20.3754 22.7692 20.8948 22.3316 21.3323C21.448 22.2159 20.2496 22.7123 19 22.7123C17.7504 22.7123 16.5519 22.2159 15.6683 21.3323C14.7847 20.4487 14.2883 19.2503 14.2883 18.0007C14.2883 16.751 14.7847 15.5526 15.6683 14.669V14.669ZM24.7566 13.9907C24.8651 13.8884 24.9519 13.7654 25.0119 13.629C25.0719 13.4925 25.104 13.3455 25.1062 13.1964C25.1083 13.0474 25.0806 12.8994 25.0245 12.7613C24.9685 12.6232 24.8853 12.4977 24.7799 12.3924C24.6746 12.287 24.5491 12.2038 24.411 12.1477C24.2729 12.0917 24.1249 12.064 23.9759 12.0661C23.8268 12.0683 23.6798 12.1004 23.5433 12.1604C23.4069 12.2204 23.2839 12.3072 23.1816 12.4157C22.9827 12.6265 22.8738 12.9066 22.8781 13.1964C22.8823 13.4863 22.9993 13.7631 23.2043 13.968C23.4092 14.173 23.686 14.29 23.9759 14.2942C24.2657 14.2985 24.5458 14.1896 24.7566 13.9907V13.9907Z" fill="#40196D"/>
</g>
<defs>
<clipPath id="clip0_89_4865">
<rect width="20" height="20" fill="white" transform="translate(9 8)"/>
</clipPath>
</defs>
</svg>
