<svg width="37" height="37" viewBox="0 0 37 37" fill="none" xmlns="http://www.w3.org/2000/svg">
<circle cx="18.5" cy="18.5" r="18.5" fill="#DFE3FF"/>
<path d="M23.6 11.82C22.9164 11.0396 22.5397 10.0374 22.54 9H19.45V21.4C19.4261 22.071 19.1428 22.7066 18.6597 23.1729C18.1766 23.6393 17.5314 23.8999 16.86 23.9C15.44 23.9 14.26 22.74 14.26 21.3C14.26 19.58 15.92 18.29 17.63 18.82V15.66C14.18 15.2 11.16 17.88 11.16 21.3C11.16 24.63 13.92 27 16.85 27C19.99 27 22.54 24.45 22.54 21.3V15.01C23.793 15.9099 25.2973 16.3926 26.84 16.39V13.3C26.84 13.3 24.96 13.39 23.6 11.82Z" fill="#40196D"/>
</svg>
