<svg width="37" height="37" viewBox="0 0 37 37" fill="none" xmlns="http://www.w3.org/2000/svg">
<circle cx="18.5" cy="18.5" r="18.5" fill="#DFE3FF"/>
<path d="M19.0547 9C14.0538 9 9.99994 13.0538 9.99994 18.0548C9.99994 22.574 13.3113 26.32 17.6404 27V20.6716H15.3404V18.0548H17.6404V16.06C17.6404 13.7909 18.9913 12.5377 21.0604 12.5377C22.0509 12.5377 23.0868 12.7143 23.0868 12.7143V14.9417H21.9459C20.8204 14.9417 20.47 15.6399 20.47 16.3561V18.0548H22.9809L22.5797 20.6716H20.47V27C24.7982 26.3209 28.1095 22.5731 28.1095 18.0548C28.1095 13.0538 24.0557 9 19.0547 9Z" fill="#40196D"/>
</svg>
