<svg width="482" height="448" viewBox="0 0 482 448" fill="none" xmlns="http://www.w3.org/2000/svg">
<circle cx="222.5" cy="250.5" r="197.5" fill="#DCFFEC"/>
<mask id="mask0_89_5348" style="mask-type:alpha" maskUnits="userSpaceOnUse" x="25" y="53" width="395" height="395">
<circle cx="222.5" cy="250.5" r="197.5" fill="#DCFFEC"/>
</mask>
<g mask="url(#mask0_89_5348)">
<path fill-rule="evenodd" clip-rule="evenodd" d="M228.865 288.455L234.743 338.364C234.743 338.364 212.032 397.729 178.1 338.364L184.78 288.455H228.865Z" fill="#A476D4"/>
<path fill-rule="evenodd" clip-rule="evenodd" d="M186.389 280.476C184.233 285.457 183.695 295.682 182.886 300.4C182.886 300.4 207.134 301.974 212.523 294.371C214.678 291.225 215.217 286.768 213.601 283.097C209.02 274.97 190.16 271.824 186.389 280.476" fill="#511B7C"/>
<path fill-rule="evenodd" clip-rule="evenodd" d="M169.126 192.087C171.014 173.7 186.655 158.99 206.072 158.99C225.488 158.99 241.399 173.437 243.017 192.087H243.287V256.179H243.017C243.017 256.968 243.287 258.017 243.287 258.806C243.287 279.032 226.567 295.317 205.802 295.317C185.037 295.317 168.317 279.032 168.317 258.806C168.317 257.755 168.587 256.968 168.587 256.179H168.317V192.087H169.126Z" fill="#A476D4"/>
<path fill-rule="evenodd" clip-rule="evenodd" d="M156.363 215.469C156.635 211.292 160.172 208.16 164.526 208.16C168.878 208.16 172.415 211.292 172.687 215.469V229.563V230.085C172.687 234.523 168.878 238.177 164.253 238.177C159.628 238.177 155.819 234.523 155.819 230.085V229.563L156.363 215.469Z" fill="#A476D4"/>
<path d="M224.723 251.204C225.219 251.391 225.723 251.804 225.824 252.287C226.098 253.058 225.448 253.489 224.5 253.501C214.569 254.565 205.494 258.702 200 265.001C199.483 265.621 198.707 266.125 197.872 265.588C197.062 264.985 196.836 264.084 197.411 263.561C203.398 256.707 213.028 252.195 223.742 251.056C224.038 251.02 224.393 251.079 224.723 251.204Z" fill="#40196D"/>
<path fill-rule="evenodd" clip-rule="evenodd" d="M215.679 229.683C216.195 229.683 216.616 229.328 216.616 228.885V204.84C216.616 204.398 216.195 204.043 215.679 204.043C215.163 204.043 214.742 204.398 214.742 204.84V228.885C214.742 229.328 215.163 229.683 215.679 229.683" fill="#3D0077"/>
<path fill-rule="evenodd" clip-rule="evenodd" d="M207.042 212.614C207.963 212.614 208.708 211.903 208.708 211.031V209.195C208.708 208.322 207.963 207.611 207.042 207.611C206.122 207.611 205.376 208.322 205.376 209.195V211.031C205.376 211.903 206.122 212.614 207.042 212.614" fill="#3D0077"/>
<path fill-rule="evenodd" clip-rule="evenodd" d="M225.372 212.614C226.293 212.614 227.038 211.903 227.038 211.031V209.195C227.038 208.322 226.293 207.611 225.372 207.611C224.451 207.611 223.706 208.322 223.706 209.195V211.031C223.706 211.903 224.451 212.614 225.372 212.614" fill="#3D0077"/>
<path fill-rule="evenodd" clip-rule="evenodd" d="M203.027 139.967C211.117 131.071 221.095 126.624 225.68 130.286C229.455 133.164 228.646 140.228 224.601 148.077C227.028 147.292 229.455 146.508 232.152 145.985C244.018 143.63 254.535 146.246 255.614 151.74C256.423 155.926 251.838 160.374 244.557 163.252C244.827 163.252 245.097 163.514 245.097 163.514C262.356 170.054 274.761 179.997 272.603 185.491C270.446 190.985 254.535 189.939 237.006 183.398C227.568 179.735 219.747 175.287 214.893 171.101C217.32 175.287 218.129 179.212 215.972 181.043C213.005 183.921 205.994 181.305 200.061 175.549C196.555 172.148 194.397 168.485 193.589 165.345C191.431 165.607 189.813 165.869 188.734 165.869C182.262 166.653 177.678 172.41 177.678 172.41C179.835 159.851 196.555 145.199 203.027 139.967" fill="#3D0077"/>
<path fill-rule="evenodd" clip-rule="evenodd" d="M178.693 173.181H195.413C195.855 173.181 196.216 172.81 196.216 172.347C196.216 171.885 195.855 171.514 195.413 171.514H178.693C178.251 171.514 177.89 171.885 177.89 172.347C177.89 172.81 178.251 173.181 178.693 173.181" fill="#3D0077"/>
<path fill-rule="evenodd" clip-rule="evenodd" d="M175.171 177.164H189.376C189.822 177.164 190.187 176.792 190.187 176.33C190.187 175.868 189.822 175.496 189.376 175.496H175.171C174.724 175.496 174.36 175.868 174.36 176.33C174.36 176.792 174.724 177.164 175.171 177.164" fill="#3D0077"/>
<path fill-rule="evenodd" clip-rule="evenodd" d="M173.492 180.902H184.993C185.439 180.902 185.802 180.53 185.802 180.068C185.802 179.606 185.439 179.234 184.993 179.234H173.492C173.046 179.234 172.683 179.606 172.683 180.068C172.683 180.53 173.046 180.902 173.492 180.902" fill="#3D0077"/>
<path fill-rule="evenodd" clip-rule="evenodd" d="M171.215 185.054H176.652C177.104 185.054 177.474 184.683 177.474 184.221C177.474 183.759 177.104 183.387 176.652 183.387H171.215C170.763 183.387 170.393 183.759 170.393 184.221C170.393 184.683 170.763 185.054 171.215 185.054" fill="#3D0077"/>
<path d="M257.123 336.777C258.008 350.678 280.655 401.673 302.99 446.786C319.234 479.637 335.399 509.339 342.897 519.335C363.904 547.397 399.827 581.42 450.615 621.405C464.151 615.131 469.513 605.525 466.702 592.588C417.19 534.303 388.972 499.291 382.048 487.577C376.607 478.388 364.997 453.189 353.387 426.507C342.74 402.35 332.093 376.995 325.846 361.559C314.288 333.184 284.612 296.871 264.854 315.926C259.257 321.288 256.68 329.071 257.123 336.777Z" fill="#A476D4"/>
<path d="M257.119 336.777C258.004 350.678 286.3 416.797 308.635 461.936C329.642 465.763 347.76 456.86 359.058 439.393C348.385 415.21 332.089 376.995 325.842 361.559C314.284 333.184 284.608 296.871 264.85 315.926C259.253 321.288 256.676 329.071 257.119 336.777Z" fill="#E29626"/>
<path d="M117.911 607.646C120.15 608.349 123.143 609.104 126.84 609.885C129.365 610.405 132.411 610.926 135.69 611.473C138.736 611.915 142.068 612.332 145.582 612.644C154.173 613.269 163.726 613.165 172.499 611.004C183.562 608.297 194.782 604.08 206.314 600.644C208.605 599.941 210.921 599.29 213.264 598.639C224.978 595.541 237.031 593.719 249.838 595.489C262.021 597.077 278.343 598.717 294.43 598.066C297.294 597.936 300.235 597.78 303.021 597.468C315.958 596.296 328.193 593.381 337.616 587.472C341.547 585.077 345.035 582.135 347.795 578.647C336.055 560.373 326.527 542.542 319.238 525.153C314.318 513.23 310.7 501.568 310.804 492.847C306.405 430.606 304.192 398.952 304.14 397.885C303.671 391.117 292.79 325.986 287.298 315.027C286.543 313.569 285.007 312.528 283.029 311.877C272.486 308.415 247.391 314.923 235.86 315.261C229.458 315.449 226.751 317.714 231.946 318.001V319.991C233.638 333.501 226.971 342.376 215.53 347.351C185.682 352.325 200.425 344.156 182.697 325.96C181.656 324.841 185.561 320.971 180.152 318.996C179.267 318.006 179.712 317.006 174.998 316.432C174.712 316.146 180.387 315.599 180.152 315.261C140.715 319.244 124.159 324.814 124.055 324.919C112.288 333.457 119.889 350.143 127.074 381.797C127.777 384.895 128.48 388.175 129.183 391.637C132.593 408.063 136.445 427.665 139.725 450.833C142.25 468.404 142.407 486.131 141.313 502.974C138.684 541.058 130.901 575.94 117.911 607.646Z" fill="#FFC83E"/>
<path d="M127.07 381.791C127.773 384.889 128.476 388.169 129.179 391.631C132.589 408.057 136.442 427.658 139.722 450.826C142.247 468.397 142.403 486.125 141.31 502.967C148.156 506.065 157.032 509.059 168.512 511.506C200.687 518.456 225.365 518.456 242.52 511.506L164.347 420.994L127.07 381.791Z" fill="#E29626"/>
<path d="M337.655 365.361L357.985 370.984C361.63 371.973 365.404 369.839 366.42 366.194L380.398 315.667C381.414 312.023 379.253 308.248 375.609 307.233L355.278 301.61C351.634 300.595 347.859 302.756 346.844 306.4L332.865 356.901C331.876 360.571 334.01 364.346 337.655 365.361Z" fill="black"/>
<path d="M354.783 388.722C358.427 384.296 362.801 379.585 367.877 374.561C375.556 367.037 392.477 350.664 394.663 343.089C394.715 342.099 394.585 340.85 394.325 339.34C394.273 339.028 394.195 338.689 394.091 338.351C393.596 336.346 392.711 333.951 390.993 331.583C390.889 331.4 390.732 331.218 390.602 331.01C389.353 329.37 387.713 327.678 385.526 326.298C385.344 326.194 385.162 326.09 384.98 325.96C383.314 324.919 381.361 323.955 379.044 323.148C367.799 334.55 359.729 341.345 354.835 343.583C359.755 335.045 361.421 329.448 359.807 326.793L356.996 325.335C350.644 333.952 345.88 340.017 342.705 343.609C334.973 352.278 331.745 362.716 333.073 374.873C339.477 386.327 346.713 390.96 354.783 388.722Z" fill="#A476D4"/>
<path d="M136.747 431.85C141.954 440.649 147.472 448.667 153.199 455.956C189.07 502.161 230.955 518.275 250.583 509.138C282.185 494.3 337.58 416.987 352.444 394.652C355.906 389.471 358.691 385.254 360.748 382.026C353.928 370.494 344.895 366.616 333.623 370.338C331.619 372.499 328.963 375.258 325.683 378.642C306.732 398.244 243.294 447.339 231.684 455.956C227.883 458.819 218.174 443.382 205.835 422.063C182.536 381.714 149.815 320.358 129.849 323.065C116.026 324.991 87.652 349.539 136.747 431.85Z" fill="#A476D4"/>
<path d="M385.538 326.335C385.356 326.23 385.173 326.126 384.991 325.996C378.067 334.248 369.997 341.12 361.953 348.435C361.797 348.591 361.979 348.878 362.188 348.774C371.715 343.281 379.134 335.159 385.538 326.335Z" fill="#40196D"/>
<path d="M391.004 331.578C390.9 331.396 390.743 331.214 390.613 331.006C383.689 339.284 375.619 346.13 367.602 353.471C367.445 353.627 367.627 353.914 367.81 353.783C377.259 348.343 384.652 340.325 391.004 331.578Z" fill="#40196D"/>
<path d="M394.332 339.339C394.28 339.026 394.202 338.688 394.098 338.35C387.46 346.029 379.807 352.563 372.231 359.487C372.049 359.617 372.231 359.904 372.44 359.799C381.394 354.984 388.267 347.409 394.332 339.339Z" fill="#40196D"/>
<path d="M136.751 431.85C141.958 440.649 147.476 448.667 153.203 455.956C183.191 447.261 198.472 432.267 205.839 422.063C182.541 381.714 149.819 320.358 129.853 323.065C116.03 324.991 87.6561 349.539 136.751 431.85Z" fill="#FFC83E"/>
</g>
<path d="M382.405 270.72C382.715 268.974 382.851 267.326 382.876 265.939C376.311 261.256 372 253.576 372 244.893C372 230.635 383.557 219.09 397.803 219.09H456.185C470.443 219.09 482 230.635 482 244.893C482 259.163 470.443 270.72 456.185 270.72H398.67C393.703 280.333 385.193 285.449 373.14 286.068C379.185 282.513 381.538 276.084 382.405 270.72Z" fill="#1DC8EF"/>
<path d="M456.449 240.395L456.449 240.395L456.454 240.397C457.13 240.683 457.709 241.077 458.186 241.566C458.678 242.059 459.047 242.641 459.308 243.306C459.571 243.976 459.699 244.694 459.699 245.466C459.699 246.238 459.571 246.955 459.308 247.625C459.047 248.291 458.679 248.871 458.191 249.373C457.713 249.876 457.13 250.274 456.444 250.538C455.772 250.814 455.017 250.955 454.21 250.955C453.368 250.955 452.614 250.814 451.93 250.539C451.243 250.274 450.658 249.875 450.18 249.37C449.706 248.87 449.338 248.291 449.077 247.625C448.814 246.955 448.685 246.238 448.685 245.466C448.685 244.694 448.814 243.976 449.077 243.306C449.338 242.64 449.707 242.059 450.184 241.568C450.662 241.078 451.242 240.684 451.919 240.397L451.919 240.397L451.927 240.394C452.612 240.117 453.367 239.977 454.21 239.977C455.019 239.977 455.775 240.118 456.449 240.395Z" fill="white" stroke="white" stroke-width="0.964912"/>
<path d="M428.533 240.394L428.533 240.394L428.541 240.397C429.218 240.684 429.798 241.078 430.276 241.568C430.753 242.059 431.122 242.641 431.383 243.306C431.646 243.976 431.775 244.694 431.775 245.466C431.775 246.238 431.646 246.955 431.383 247.625C431.122 248.291 430.754 248.87 430.28 249.37C429.802 249.875 429.217 250.274 428.53 250.539C427.848 250.814 427.106 250.955 426.285 250.955C425.457 250.955 424.69 250.815 424.016 250.538C423.33 250.274 422.747 249.876 422.269 249.373C421.781 248.871 421.413 248.291 421.152 247.625C420.889 246.955 420.76 246.238 420.76 245.466C420.76 244.694 420.889 243.976 421.152 243.306C421.413 242.641 421.782 242.059 422.274 241.566C422.751 241.077 423.33 240.683 424.006 240.397L424.006 240.397L424.011 240.395C424.686 240.117 425.455 239.977 426.285 239.977C427.107 239.977 427.85 240.118 428.533 240.394Z" fill="white" stroke="white" stroke-width="0.964912"/>
<path d="M400.611 240.395L400.611 240.395L400.615 240.397C401.292 240.683 401.871 241.077 402.348 241.566C402.84 242.059 403.209 242.641 403.469 243.306C403.732 243.976 403.861 244.694 403.861 245.466C403.861 246.238 403.732 246.955 403.469 247.625C403.209 248.291 402.841 248.871 402.353 249.373C401.875 249.876 401.291 250.274 400.606 250.538C399.933 250.814 399.179 250.955 398.372 250.955C397.529 250.955 396.775 250.814 396.091 250.538C395.416 250.273 394.833 249.876 394.346 249.375L394.346 249.375L394.342 249.37C393.868 248.87 393.5 248.291 393.239 247.625C392.976 246.955 392.847 246.238 392.847 245.466C392.847 244.694 392.976 243.976 393.239 243.306C393.5 242.641 393.868 242.059 394.346 241.568L394.346 241.568L394.351 241.564C394.837 241.078 395.414 240.685 396.078 240.398L396.078 240.398L396.088 240.394C396.773 240.117 397.528 239.977 398.372 239.977C399.181 239.977 399.937 240.118 400.611 240.395Z" fill="white" stroke="white" stroke-width="0.964912"/>
<g filter="url(#filter0_d_89_5348)">
<path d="M336.905 31.8413C344.947 17.9118 365.053 17.9119 373.095 31.8414L418.311 110.159C426.354 124.088 416.301 141.5 400.217 141.5L309.783 141.5C293.699 141.5 283.646 124.088 291.689 110.159L336.905 31.8413Z" fill="white"/>
<path d="M372.324 32.2867L417.54 110.604C425.239 123.94 415.615 140.609 400.217 140.609L309.783 140.609C294.385 140.609 284.761 123.94 292.46 110.604L337.676 32.2867C345.376 18.951 364.624 18.951 372.324 32.2867Z" stroke="#F7685B" stroke-width="1.78145"/>
</g>
<path d="M361.201 57.0979C361.201 53.8952 358.605 51.2988 355.402 51.2988V51.2988C352.199 51.2988 349.603 53.8952 349.603 57.0979L349.603 94.4216C349.603 97.6244 352.199 100.221 355.402 100.221V100.221C358.605 100.221 361.201 97.6243 361.201 94.4216L361.201 57.0979Z" fill="#F7685B"/>
<rect x="349.603" y="109.525" width="11.5982" height="11.7413" rx="5.79909" fill="#F7685B"/>
<path d="M67.1273 221.424H0V301.708H29.4325L40.1423 324.079L50.8677 301.708H80.2846V235.906H67.1273V221.424Z" fill="#48D38A"/>
<path d="M109 194.018H67.1273V221.423H80.2846V235.906H109V194.018Z" fill="#1DC8EF"/>
<path d="M67.1273 221.424V235.906H80.2846V221.424H67.1273Z" fill="#40196D"/>
<path d="M44.5855 249.001L48.2178 252.633C50.2288 254.66 50.2288 257.933 48.2178 259.944L38.5525 269.61C36.5259 271.636 33.2521 271.636 31.2255 269.61L27.6088 265.993L14.28 279.322L19.3465 284.373C22.6203 287.646 27.64 288.379 31.7244 286.212C46.16 278.527 57.4155 266.835 64.7424 253.179C66.9405 249.079 66.2546 244.012 62.9652 240.723L57.9143 235.672L44.5855 249.001Z" fill="white"/>
<path d="M14.9349 257.497H14.3269C14.3269 251.682 16.5873 246.21 20.7029 242.095C24.8029 237.995 30.2747 235.719 36.0895 235.719V236.342C30.4462 236.342 25.1302 238.54 21.1394 242.531C17.133 246.538 14.9349 251.854 14.9349 257.497Z" fill="white"/>
<path d="M23.7114 257.497C23.7114 254.192 24.9897 251.074 27.3437 248.736C29.6821 246.397 32.7844 245.119 36.0893 245.119V245.727C32.9559 245.727 29.9939 246.959 27.7802 249.172C25.5509 251.402 24.335 254.348 24.335 257.497H23.7114Z" fill="white"/>
<defs>
<filter id="filter0_d_89_5348" x="244.322" y="12.4873" width="221.356" height="209.178" filterUnits="userSpaceOnUse" color-interpolation-filters="sRGB">
<feFlood flood-opacity="0" result="BackgroundImageFix"/>
<feColorMatrix in="SourceAlpha" type="matrix" values="0 0 0 0 0 0 0 0 0 0 0 0 0 0 0 0 0 0 127 0" result="hardAlpha"/>
<feOffset dy="35.629"/>
<feGaussianBlur stdDeviation="22.2681"/>
<feColorMatrix type="matrix" values="0 0 0 0 0.968627 0 0 0 0 0.407843 0 0 0 0 0.356863 0 0 0 0.3 0"/>
<feBlend mode="normal" in2="BackgroundImageFix" result="effect1_dropShadow_89_5348"/>
<feBlend mode="normal" in="SourceGraphic" in2="effect1_dropShadow_89_5348" result="shape"/>
</filter>
</defs>
</svg>
